<?xml version="1.0" standalone="no"?>
<!DOCTYPE svg PUBLIC "-//W3C//DTD SVG 1.1//EN" "http://www.w3.org/Graphics/SVG/1.1/DTD/svg11.dtd" >
<svg xmlns="http://www.w3.org/2000/svg">
<metadata>Generated by IcoMoon</metadata>
<defs>
<font id="Covenant" horiz-adv-x="1024">
<font-face units-per-em="1024" ascent="960" descent="-64" />
<missing-glyph horiz-adv-x="1024" />
<glyph unicode="&#x20;" horiz-adv-x="512" d="" />
<glyph unicode="&#x30;" glyph-name="0" d="M511.030 57.371c-109.622 190.68-213.1 370.472-320.674 557.487h641.563c-107.682-187.123-211.699-367.778-320.889-557.487zM510.814 316.928c35.139 60.685 64.889 111.885 97.657 168.367h-194.991c33.63-58.206 62.949-108.867 97.334-168.367zM510.491 838.629c38.696-66.506 70.925-122.018 107.358-184.859h-212.13c35.247 62.087 67.368 118.892 104.771 184.859zM161.361 231.882c36.109 62.733 68.446 119 106.388 184.859 37.619-65.105 69.955-121.263 106.712-184.859h-213.1zM862.639 230.157h-214.932c35.786 62.518 67.907 118.784 106.819 186.691 37.403-64.566 69.74-120.401 108.113-186.691z" />
<glyph unicode="&#x31;" glyph-name="1" d="M189.925 168.61c108.436 188.524 211.591 367.885 321.32 558.673 109.622-189.709 214.178-370.688 322.722-558.673h-644.042zM511.245 469.235c-35.032-61.117-65.213-113.718-97.118-169.229h194.883c-32.876 57.021-62.195 107.682-97.657 169.229z" />
<glyph unicode="&#x32;" glyph-name="2" d="M847.98 168.071h-644.904c107.897 187.554 212.022 368.532 322.075 559.859 108.975-188.847 213.1-369.502 322.829-559.859zM426.954 298.496h195.638c-33.523 58.961-63.596 111.562-97.549 171.17-35.463-61.763-65.32-113.933-98.088-171.17zM281.869 368.99c-38.589 67.153-70.279 122.233-105.957 184.32h211.267c-34.816-60.901-66.937-117.059-105.31-184.32z" />
<glyph unicode="&#x33;" glyph-name="3" d="M497.017 726.205c108.975-189.386 212.345-368.963 320.35-556.517h-641.132c106.496 184.751 210.513 365.191 320.781 556.517zM595.752 295.909c-34.493 59.823-64.781 112.317-99.166 172.032-35.247-61.548-64.889-113.395-98.52-172.032h197.794zM632.724 555.143h215.040c-36.648-63.811-69.524-121.263-107.682-187.769-37.080 64.889-69.524 121.479-107.358 187.769z" />
<glyph unicode="&#x34;" glyph-name="4" d="M512.539 838.413c109.622-190.464 212.776-369.933 320.674-557.272h-642.317c107.574 186.476 211.914 367.131 321.644 557.272zM610.412 408.010c-34.169 59.392-64.35 111.885-98.627 171.277-34.924-60.685-64.674-112.317-98.735-171.277h197.255zM404.103 245.356h215.148c-37.080-64.566-70.171-122.125-107.897-187.661-36.972 64.781-69.416 121.479-107.251 187.661z" />
<glyph unicode="&#x35;" glyph-name="5" d="M835.368 167.316h-646.845c108.76 188.416 213.639 370.041 324.123 561.475 109.622-190.68 213.531-371.443 322.722-561.475zM413.588 299.251h197.255c-33.738 58.422-63.596 110.161-98.627 170.739-34.924-60.47-64.997-112.317-98.735-170.739zM649.755 552.448h212.022c-36.002-62.733-68.662-119.754-106.604-185.937-37.834 66.722-69.74 122.988-105.418 185.937zM373.706 552.771c-35.355-61.656-67.045-116.952-105.31-183.673-37.403 64.781-69.632 120.616-106.065 183.673h211.483z" />
<glyph unicode="&#x36;" glyph-name="6" d="M498.095 837.982c109.622-189.817 213.315-369.502 321.428-556.625h-642.425c106.927 185.29 211.052 365.837 321.105 556.625zM498.095 579.719c-35.032-60.362-65.859-113.502-99.382-171.277h198.117c-34.277 59.392-64.781 112.424-98.735 171.277zM603.729 241.368c-36.002-62.41-68.554-118.784-105.849-183.35-36.756 63.704-69.201 119.862-105.741 183.35h211.591zM846.902 663.148c-36.002-62.841-67.476-118.029-105.418-184.212-37.295 64.674-69.524 120.509-106.173 184.212h211.591z" />
<glyph unicode="&#x37;" glyph-name="7" d="M847.98 279.633h-644.042c107.897 187.446 211.699 367.67 321.536 558.457 110.269-190.895 214.717-371.766 322.506-558.457zM624.209 408.441c-34.169 58.53-64.566 110.7-99.705 170.846-35.032-61.332-64.566-112.963-97.657-170.846h197.363zM418.547 244.17h214.501c-36.541-63.165-69.201-119.646-107.789-186.26-36.433 63.596-68.662 119.862-106.712 186.26zM281.977 480.013c-38.157 66.075-69.955 121.048-105.957 183.35h211.914c-35.678-61.656-68.123-117.814-105.957-183.35z" />
<glyph unicode="&#x38;" glyph-name="8" d="M834.937 278.878h-644.904c107.789 187.554 211.591 368.101 321.536 559.427 109.299-189.171 213.531-369.395 323.368-559.427zM511.892 580.581c-35.786-61.979-66.398-114.796-99.166-171.601h197.147c-33.199 58.099-62.841 109.945-97.981 171.601zM617.849 242.23c-36.648-63.811-69.093-120.293-105.957-184.536-36.972 64.458-69.309 120.832-105.849 184.536h211.806zM755.604 479.151c-37.726 65.105-70.063 121.048-106.819 184.536h211.483c-34.816-61.44-66.722-117.706-104.664-184.536zM268.504 478.073c-37.726 66.614-68.985 121.802-104.771 184.751h208.573c-33.738-60.039-65.536-116.736-103.801-184.751z" />
<glyph unicode="&#x39;" glyph-name="9" d="M728.118 584.569c-62.733 36.433-119 68.985-184.643 107.035 64.997 37.403 121.371 69.848 184.643 106.173v-213.315zM542.828 204.288c64.458 37.295 121.155 70.171 184.32 106.819v-212.992c-62.087 35.786-118.676 68.339-184.32 106.173zM345.034 770.722c188.093-108.436 368.64-212.453 557.595-321.428-188.955-109.191-369.61-213.639-557.595-322.183v643.611zM473.735 349.912c61.009 35.355 112.856 65.428 172.14 99.813-59.931 34.385-112.424 64.458-172.14 98.735v-198.548zM308.278 555.789v-216.118c-64.135 37.187-121.263 70.279-186.907 108.328 66.291 38.265 122.88 70.925 186.907 107.789z" />
<glyph unicode="&#x41;" glyph-name="A" d="M498.311 726.528c109.406-190.141 212.884-369.933 320.566-557.056h-642.21c41.068 71.357 78.255 135.923 117.059 203.507h166.427c-29.427 53.787-54.541 99.813-80.627 147.564 37.511 64.997 74.914 129.886 118.784 206.093zM847.333 552.34c-36.864-63.919-68.877-119.323-106.388-184.212-37.187 64.458-69.524 120.616-106.28 184.212h212.561z" />
<glyph unicode="&#x42;" glyph-name="B" d="M833.967 168.394h-645.336c108.221 187.661 212.884 369.287 322.398 559.212 108.544-187.877 212.884-368.64 322.937-559.212zM645.767 556.544h216.98c-36.109-62.195-69.309-119.323-108.221-186.368-37.295 63.919-69.848 119.862-108.76 186.368zM161.253 553.741h212.669c-36.217-62.195-68.77-117.922-107.143-183.565-37.403 64.997-69.524 120.94-105.526 183.565z" />
<glyph unicode="&#x43;" glyph-name="C" d="M497.664 727.067c43.655-75.453 80.411-138.941 118.892-205.555-25.007-44.517-50.23-89.357-80.195-142.713h161.792c40.744-70.387 78.902-136.461 121.479-209.974h-643.395c107.143 186.152 211.267 366.808 321.428 558.242zM741.16 368.020c-38.265 67.045-69.74 122.125-105.203 184.212h211.914c-35.894-61.979-68.231-117.814-106.712-184.212z" />
<glyph unicode="&#x44;" glyph-name="D" d="M791.606 447.569c-190.572-109.945-371.011-214.070-558.242-322.075v240.909c44.733 26.516 89.25 52.817 139.587 82.675-49.799 29.858-95.070 57.021-140.557 84.291v237.352c187.015-108.113 367.562-212.453 559.212-323.261zM618.065 97.576c-64.458 37.295-119.862 69.416-186.152 107.789 64.889 37.511 122.125 70.494 186.152 107.466v-215.256zM617.095 584.569c-63.057 36.541-119.323 69.201-184.643 107.143 64.997 37.619 121.155 70.063 184.643 106.712v-213.854z" />
<glyph unicode="&#x45;" glyph-name="E" d="M679.181 126.787c-187.123 107.789-366.7 211.267-556.733 320.889 188.416 108.867 368.856 212.992 556.733 321.536v-642.425zM718.74 555.574c60.793-35.247 116.736-67.692 182.919-106.065-64.566-37.834-120.077-70.387-182.919-107.143v213.315z" />
<glyph unicode="&#x46;" glyph-name="F" d="M512.323 169.795c-110.269 191.326-213.639 370.796-320.674 556.409h641.563c-42.361-73.512-80.411-139.48-118.784-206.201h-163.624c28.133-50.984 52.817-95.501 80.088-144.869-37.080-64.243-75.129-130.102-118.568-205.447zM376.724 341.827h-214.501c36.002 63.057 68.123 119.107 105.849 185.182 37.619-64.135 70.602-120.509 108.544-185.182zM649.755 349.696c35.894 62.195 67.8 117.491 105.526 182.919 37.187-63.811 69.74-119.754 106.496-182.919h-211.914z" />
<glyph unicode="&#x47;" glyph-name="G" d="M346.328 140.8v642.102c185.721-107.143 365.837-211.052 556.84-321.32-189.278-109.083-369.395-212.776-556.84-320.781zM544.552 218.947c64.027 37.403 120.293 70.171 183.458 107.035v-212.884c-62.195 35.894-118.676 68.446-183.458 105.957zM120.832 462.875c67.045 38.481 123.311 70.818 186.691 107.143v-215.040c-62.626 36.217-118.892 68.662-186.691 107.789z" />
<glyph unicode="&#x48;" glyph-name="H" d="M645.336 375.35c-38.481-66.829-75.776-131.611-118.461-205.77-108.867 188.847-212.884 369.287-321.105 556.84h641.24c-40.205-70.387-77.824-136.354-116.628-204.261h-165.672c28.995-52.817 53.248-96.903 80.519-146.809zM176.883 343.983c36.217 62.733 68.123 117.922 106.28 183.997 37.187-64.781 69.416-120.94 105.741-183.997h-212.022z" />
<glyph unicode="&#x49;" glyph-name="I" d="M833.32 621.972c-109.514-189.925-213.208-369.502-321.428-557.272-108.975 188.955-213.1 369.61-321.32 557.272h642.749zM618.927 643.853h-214.932c36.972 64.458 69.74 121.694 107.466 187.338 37.511-65.32 69.955-121.91 107.466-187.338z" />
<glyph unicode="&#x4a;" glyph-name="J" d="M564.493 488.205h163.409c39.020-67.368 77.285-133.443 119.754-206.74h-641.563c106.604 184.967 210.513 365.406 320.566 556.409 42.577-73.512 79.656-137.539 118.568-205.016-25.007-44.84-50.122-89.896-80.734-144.653zM526.983 58.125c-37.619 64.997-70.063 121.263-106.927 184.967h212.776c-34.924-61.117-67.153-117.491-105.849-184.967zM389.012 665.627c-35.463-62.949-67.476-119.646-105.095-186.476-37.942 65.967-70.925 122.988-107.466 186.476h212.561z" />
<glyph unicode="&#x4b;" glyph-name="K" d="M232.825 449.293c190.141 109.406 370.688 213.315 558.242 321.213v-240.586c-42.792-25.331-88.387-52.386-139.48-82.567 51.416-30.828 95.825-57.344 139.587-83.645v-236.059c-187.338 107.897-367.885 212.022-558.349 321.644zM592.519 205.366c-65.536-37.942-122.018-70.71-185.29-107.466v214.393c61.763-35.678 118.245-68.231 185.29-106.927zM406.474 798.1c63.165-36.217 119.862-68.554 186.691-106.819-65.213-37.403-122.449-70.279-186.691-107.143v213.962z" />
<glyph unicode="&#x4c;" glyph-name="L" d="M527.414 169.903c-109.406 189.494-213.208 369.287-321.105 556.086h640.916c-106.28-184.751-209.974-364.975-319.811-556.086zM283.81 529.058c37.942-66.829 69.309-122.233 104.987-185.182h-212.022c36.433 63.057 68.662 118.784 107.035 185.182z" />
<glyph unicode="&#x4d;" glyph-name="M" d="M832.674 662.932c-107.897-187.661-211.267-367.239-320.458-556.948-109.406 189.278-213.639 369.395-321.967 556.948h642.425zM404.965 699.688c36.864 64.35 68.77 119.97 106.927 186.691 37.295-65.213 70.063-122.341 106.819-186.691h-213.854zM162.762 280.819c34.708 60.47 67.153 116.952 104.987 182.703 36.864-63.38 69.416-119.431 106.173-182.703h-211.16zM861.238 278.339h-213.1c35.786 62.518 68.123 118.784 106.388 185.613 37.511-65.213 70.171-122.125 106.604-185.613z" />
<glyph unicode="&#x4e;" glyph-name="N" d="M512.216 137.997c-108.975 188.739-212.776 368.532-320.997 555.978h641.347c-107.682-186.799-211.699-367.347-320.458-555.978zM649.216 311c36.217 63.165 68.446 119.323 106.173 185.182 37.511-65.428 69.74-121.587 106.173-185.182h-212.345z" />
<glyph unicode="&#x4f;" glyph-name="O" d="M834.183 727.498c-109.299-189.386-213.639-370.149-322.506-558.888-42.253 73.62-79.441 138.617-117.814 205.555 24.684 45.811 49.044 90.974 76.962 142.821h-159.313c-39.774 68.77-78.579 135.815-121.694 210.513h644.365z" />
<glyph unicode="&#x50;" glyph-name="P" d="M323.907 303.454h-239.077c108.113 187.877 212.022 368.317 321.213 558.134 109.299-189.386 213.531-369.718 321.859-557.379h-237.352c-25.331 42.038-52.062 86.339-83.321 138.294-29.211-48.721-55.404-92.483-83.321-139.048zM298.685 268.638h215.148c-36.325-63.272-68.446-119.215-107.466-187.338-37.080 64.566-69.632 121.263-107.574 187.338zM755.065 687.939c-35.571-62.518-67.8-119-105.095-184.536-37.619 64.566-70.279 120.832-107.358 184.536h212.345z" />
<glyph unicode="&#x51;" glyph-name="Q" d="M175.266 727.821h645.012c-108.221-188.093-212.776-369.933-321.752-559.535-42.685 73.836-80.195 138.725-119 205.878 25.438 45.379 50.445 90.112 80.088 142.929h-162.762c-40.205 69.632-78.147 135.491-121.587 210.728zM848.734 340.857h-214.178c36.433 63.272 68.77 119.646 106.712 185.506 37.403-64.674 69.848-120.724 107.358-185.506z" />
<glyph unicode="&#x52;" glyph-name="R" d="M585.512 231.020v161.792c-50.661-27.917-95.286-52.601-143.252-79.010-65.428 37.726-131.611 75.992-208.465 120.293 188.524 108.76 368.64 212.776 556.409 321.105v-642.533c-71.033 41.068-137 79.225-204.692 118.353zM407.013 783.333c63.38-36.541 119.754-68.985 185.506-106.819-64.674-37.295-121.587-70.171-185.506-107.143v213.962z" />
<glyph unicode="&#x53;" glyph-name="S" d="M833.859 168.717h-643.719c42.469 73.62 80.627 139.695 120.509 208.68h163.84c-29.427 52.386-54.541 97.118-80.519 143.36 38.050 66.291 75.345 131.288 118.461 206.525 108.544-188.632 212.561-369.395 321.428-558.457z" />
<glyph unicode="&#x54;" glyph-name="T" d="M497.125 838.090c109.083-188.955 212.884-368.64 320.889-555.547h-641.24c106.927 185.398 211.052 365.837 320.458 555.547zM497.233 57.91c-38.265 66.829-69.848 122.018-105.634 184.536h209.543c-33.954-60.147-66.183-117.491-103.909-184.536zM633.91 658.836h213.315c-36.217-63.165-68.554-119.431-106.712-185.721-37.619 65.536-69.848 121.802-106.604 185.721z" />
<glyph unicode="&#x55;" glyph-name="U" d="M679.397 783.225v-643.288c-188.2 108.544-368.209 212.237-557.272 321.32 190.141 109.837 370.472 213.962 557.272 321.967zM717.447 569.263c63.057-36.433 119.323-68.877 184.536-106.604-64.781-37.187-120.94-69.524-184.536-106.065v212.776zM296.205 325.443c63.919-37.080 120.185-69.74 183.889-106.604-64.35-37.187-120.616-69.632-183.889-106.065v212.776z" />
<glyph unicode="&#x56;" glyph-name="V" d="M901.982 433.987c-73.512-42.685-138.186-80.303-205.986-119.754-45.272 25.869-89.896 51.416-141.959 81.165v-162.654c-69.093-40.098-134.952-78.255-207.818-120.509v643.719c186.799-108.221 367.239-212.669 555.87-321.967zM308.386 541.561v-214.393c-63.596 36.541-120.185 69.093-186.368 107.143 64.674 37.187 122.018 70.279 186.368 107.251zM543.798 678.346c65.644 37.726 120.832 69.416 183.134 105.31v-211.267c-61.009 35.355-116.952 67.692-183.134 105.957z" />
<glyph unicode="&#x57;" glyph-name="W" d="M834.722 280.603h-642.533c108.113 187.338 212.237 367.67 321.428 556.733 109.083-189.171 212.669-368.64 321.105-556.733zM619.789 243.523c-36.433-63.38-68.77-119.431-106.496-184.859-37.619 65.213-70.063 121.371-106.712 184.859h213.208zM160.822 668.106h216.98c-36.648-64.243-69.309-121.479-107.574-188.739-37.726 65.105-70.71 122.125-109.299 188.739zM756.898 479.906c-37.511 64.889-70.063 121.155-106.927 184.967h213.315c-35.463-61.763-68.339-118.892-106.388-184.967z" />
<glyph unicode="&#x58;" glyph-name="X" d="M835.045 167.963h-238.215c-26.732 45.056-53.032 89.465-83.429 140.557-30.397-50.122-57.56-94.855-85.477-140.881h-238.538c108.436 188.524 212.884 370.149 322.398 560.613 109.083-189.063 213.423-370.041 323.261-560.397zM862.424 557.837c-36.864-63.596-69.416-119.539-107.358-184.859-37.403 64.889-69.848 121.155-106.604 184.859h213.854zM375.323 554.927c-36.756-63.704-68.554-119-106.927-185.721-36.972 64.243-69.524 120.94-106.819 185.721h213.747z" />
<glyph unicode="&#x59;" glyph-name="Y" d="M431.158 614.104c24.253-40.744 50.661-85.154 81.165-136.461 29.642 49.152 56.051 93.022 83.752 138.941h236.813c-106.819-186.368-210.189-366.915-320.027-558.673-109.299 188.739-213.423 368.64-321.967 556.301h240.155zM511.784 838.090c36.756-63.704 69.524-120.401 106.173-184.104h-211.914c35.463 61.763 68.123 118.568 105.741 184.104z" />
<glyph unicode="&#x5a;" glyph-name="Z" d="M644.15 521.62c-25.977-47.212-50.769-92.16-79.441-144.222h163.085c39.559-69.093 77.393-135.168 119.646-208.788h-643.503c107.789 187.123 212.345 368.532 321.967 558.888 42.685-74.267 80.411-140.019 118.245-205.77zM282.301 369.206c-38.050 66.183-69.848 121.479-105.849 183.889h211.914c-34.924-60.578-67.907-117.706-106.065-183.889z" />
</font>
</defs>
</svg>
