<?xml version="1.0" standalone="no"?>
<!DOCTYPE svg PUBLIC "-//W3C//DTD SVG 1.1//EN" "http://www.w3.org/Graphics/SVG/1.1/DTD/svg11.dtd" >
<svg xmlns="http://www.w3.org/2000/svg">
<metadata>
This is a custom SVG webfont generated by Font Squirrel.
Copyright   :  2009 Microsoft Corporation All Rights Reserved
Foundry     : Microsoft Corporation
Foundry URL : httpwwwmicrosoftcomtypographyfonts
</metadata>
<defs>
<font id="Spherograms" horiz-adv-x="0" >
<font-face units-per-em="2048" ascent="1638" descent="-410" />
<missing-glyph horiz-adv-x="561" />
<glyph unicode="&#xd;" />
<glyph unicode=" "  horiz-adv-x="561" />
<glyph unicode="&#x09;" horiz-adv-x="561" />
<glyph unicode="&#xa0;" horiz-adv-x="561" />
<glyph unicode="&#xa1;" horiz-adv-x="1187" d="M100 527q0 7 4 15q2 4 4 6l422 336q0 95 -2 184t-4.5 160t-4.5 117.5t-2 56.5q0 15 5 30.5t14 29t21 22t27 8.5q7 0 14 -2l16 -4q18 -9 31.5 -17t22.5 -19t13.5 -28t4.5 -44v-74q0 -46 -0.5 -105.5t-1 -129t-2 -142t-3.5 -145t-5 -138.5l397 -313l8 -10q3 -5 5.5 -12 t2.5 -16q0 -8 -3.5 -16.5t-12.5 -17.5q-26 -26 -42.5 -33t-26.5 -7q-5 0 -7.5 0.5t-4.5 1.5q-3 1 -4 2l-116 84l-103 78q-54 42 -94 79q-2 -35 -3.5 -65.5t-3.5 -53.5q-2 -27 -4 -50l349 -265q2 -2 4 -5q4 -6 4 -16q0 -8 -5 -16.5t-15 -21.5q-20 -26 -33 -34t-22 -8 q-8 0 -14 2q-3 1 -4 3l-148 111l-61 47l-59 48l-53 45q-24 21 -40 38q-14 14 -18.5 26.5t-4.5 21.5q-1 62 -2 133q-2 61 -3.5 141.5t-6.5 171.5q-42 -37 -99 -83l-110 -86l-128 -96q-2 -2 -4 -3q-6 -2 -11 -2q-9 0 -24 7t-35 31q-11 13 -15 23.5t-4 18.5z" />
<glyph unicode="&#xa4;" horiz-adv-x="1957" d="M100 762q0 12 10.5 21.5t27 16.5t36 11t38.5 4q16 0 30 -9t38 -35l60 -67l79 -91l91 -107l94 -112l91 -108l79 -95v1110q0 38 12 64.5t41 26.5q8 0 15 -2t15 -5q23 -9 37 -18.5t22 -23t11 -32.5t3 -46q0 -36 -1 -104.5t-2.5 -156.5t-4 -188.5t-4.5 -199.5 q-5 -233 -12 -505q0 -14 -4 -33t-11.5 -37t-19.5 -30.5t-28 -12.5q-19 0 -38.5 8.5t-29.5 19.5l-639 662q-16 17 -26 37t-10 37zM1026 111q0 38 1.5 108.5t4 160t6 190.5t6.5 201l18 507q2 24 4.5 44.5t8 35t16 23t27.5 8.5q21 0 41 -12.5t35 -26.5l299 -311l113 -117 l100 -105l76 -79l38 -38q16 -17 26.5 -38.5t10.5 -39.5q0 -9 -7 -18.5t-18 -17.5t-24 -13t-24 -5t-22.5 1t-24.5 5.5t-28 14.5t-33 29q-22 23 -56 63l-76 89l-89 106l-93 113l-90 109l-78 96v-1119q0 -12 -4 -27t-11.5 -27.5t-18 -21.5t-23.5 -9q-50 0 -80.5 30.5 t-30.5 90.5z" />
<glyph unicode="&#xa5;" horiz-adv-x="1443" d="M100 755q0 13 12.5 20.5t31.5 11t39.5 4t37.5 0.5h369q-1 140 -6.5 216.5t-5.5 99.5q0 9 2 21t9 24.5t21 25t39 23.5q16 7 26 7q13 0 20 -5t11 -11q4 -7 5 -15v-950q56 40 118 101q53 51 117 129.5t130 185.5q39 65 64.5 122.5t40 108.5t20 94.5t5.5 81.5q0 48 -5 85 t-10 66q-6 27 -6 38q0 12 6 25t24 33q39 43 60 43q11 0 19.5 -12t18.5 -41q16 -41 23 -88.5t7 -101.5q0 -105 -30.5 -226.5t-96.5 -246.5q-36 -70 -77 -130.5t-83 -111.5t-83.5 -92.5t-78.5 -74.5q-89 -77 -177 -128q-14 -8 -30.5 -12t-29.5 -4q-12 0 -23.5 5t-19.5 19 q-9 17 -10.5 35.5t-1.5 36.5v31q0 21 -1.5 54t-4 75t-6.5 92q-21 -2 -50.5 -3.5t-64 -3.5t-70 -3t-68.5 -1q-45 0 -58.5 10t-13.5 37t1 43.5t6.5 26t17.5 12.5t35 3q22 0 59 -2t77 -4.5t75.5 -4.5t53.5 -2v132q-11 0 -34.5 0.5t-54.5 1.5t-67 2l-71 2q-84 3 -182 7 q-9 0 -20 2t-21.5 7t-19 13t-12.5 21q-8 24 -8 40z" />
<glyph unicode="&#xa6;" horiz-adv-x="1958" d="M100 510q0 15 7 26t19 18t27.5 10.5t31.5 3.5h35q30 0 77.5 -0.5t110 -1t135 -1.5t151 -1.5t158.5 -1.5q281 -3 631 -6q18 0 35 -4.5t26 -32.5q4 -9 5 -16t1 -13q0 -11 -5 -17t-10 -9q-7 -4 -15 -4q-323 -15 -593 -26l-230 -10l-213 -10l-171 -8q-73 -4 -104 -6 q-19 0 -38.5 10.5t-35 27t-25.5 35.5t-10 37zM319 692q0 10 4.5 24t16.5 35q10 18 17.5 29t17.5 17.5t24.5 9t37.5 2.5q34 -2 97.5 -4.5t145 -4.5t174.5 -4l185 -4q216 -4 468 -8q12 -1 23 -5q8 -4 15.5 -11t7.5 -21q0 -10 -3.5 -22.5t-10.5 -23.5t-17.5 -18.5t-23.5 -7.5 l-1085 -11q-52 0 -73 5t-21 23zM870 983q0 14 6.5 22.5t17 13t23.5 6t27 1.5q16 0 61 -2.5t103 -6.5l121 -9q64 -5 118 -9l92 -8q38 -3 44 -3q28 -2 47 -16t19 -49q0 -16 -6.5 -24.5t-14.5 -12.5q-10 -4 -21 -5h-529q-22 0 -36.5 2.5t-24.5 9t-18 18.5t-17 30q-12 25 -12 42 zM1027 129q0 7 19 12.5t64 5.5q75 0 146.5 21t135.5 59t117.5 91t92.5 117t60.5 136.5t21.5 149.5q0 105 -42.5 203.5t-116.5 178.5t-174 135.5t-216 74.5q-31 5 -45.5 9t-14.5 13q0 12 19 19t50 7q73 0 154.5 -23t161 -64t151.5 -99.5t127 -128.5t87.5 -151t32.5 -168 q0 -101 -33 -186.5t-89 -155.5t-130 -123.5t-155.5 -89.5t-166 -54.5t-161.5 -18.5q-19 0 -36 2.5t-30.5 7t-21.5 9.5t-8 11z" />
<glyph unicode="&#xa7;" horiz-adv-x="1734" d="M100 7l27 362q5 69 11 137l10 124l7 96q3 39 5 51q4 32 18 42.5t30 10.5q4 0 8 -1l8 -2l8 -2l566 -240q7 160 12 280l8 206q3 87 5 146t3.5 97.5t2 62t1.5 39t1.5 28t1.5 30.5q3 29 21 29q12 0 27 -10t28.5 -26.5t23 -39.5t9.5 -48v-181l268 -122l105 -47l98 -42l80 -34 q34 -15 50 -20q17 -7 33.5 -20t29 -29.5t20.5 -35.5t8 -37q0 -11 -8 -21t-33 -10q-10 0 -22.5 1.5t-27.5 7.5q-13 5 -47 20l-78 35l-100 45l-108 49l-280 128q-2 -104 -3 -186.5t-1 -146.5q0 -82 1 -135.5t3 -87.5t4 -52.5t4 -29t3 -18t1 -18.5q0 -29 -10.5 -50t-28.5 -37.5 t-42 -30t-51 -26.5q-5 -2 -8.5 -3t-7.5 -1q-10 0 -17 9.5t-7 32.5q0 13 2 39t4.5 53.5t5 49t3.5 25.5l-516 216q-3 -159 -6 -287q-1 -55 -2.5 -108.5t-2.5 -97t-1.5 -73t-0.5 -36.5q-1 -16 -9 -42t-24.5 -50.5t-40.5 -42.5t-56 -18q-8 0 -13 8.5t-8 22t-4 30t-1 32.5z" />
<glyph unicode="&#xab;" horiz-adv-x="1214" d="M100 974q0 29 13 47.5t29 29.5q18 13 42 20l380 85l144 32l130 29l100 22q40 9 52 11q13 3 28.5 4t23.5 1q32 0 52 -20t20 -44q0 -10 -1 -13.5t-3 -11.5l-662 -974q-17 -25 -34 -36t-36 -11q-12 0 -26 9t-26 23t-19.5 30.5t-7.5 31.5q0 23 4.5 42.5t21.5 41.5l57 80 l85 112l101 132l106 138l268 345l-794 -205q-2 -1 -4 -1q-3 -1 -10 -1q-11 0 -22.5 9.5t-11.5 41.5z" />
<glyph unicode="&#xac;" horiz-adv-x="2202" d="M100 726q0 18 12.5 27.5t32.5 14t46 5.5t53 1q25 0 78 0.5t122.5 1.5t150.5 2l162 2q189 3 413 6l72 168q-204 -3 -383 -6l-154 -2q-78 -1 -147.5 -2t-126 -1.5t-90.5 -0.5q-60 0 -87.5 21t-27.5 69q0 32 24.5 49t54.5 17q9 0 56 -2t118 -5l159 -8q88 -5 178 -9l475 -24 l38 81l28 61q13 29 18 38l15 33q9 17 22 31t30.5 23.5t41.5 9.5q31 0 51.5 -13t33.5 -29q15 -18 23 -42l505 -1167l2 -8q1 -4 2 -8.5t1 -9.5q0 -22 -17 -35t-46 -13q-22 0 -36.5 5.5t-22.5 13.5q-11 8 -16 19l-276 637q-14 0 -63 -1.5t-122.5 -3.5t-166.5 -5l-195 -6 q-103 -4 -209 -8l-206 -7l-190 -7q-90 -3 -158 -5t-110 -3.5t-47 -1.5q-54 0 -87.5 21.5t-33.5 75.5zM1303 786h348l-59 168h-217zM1411 1062l145 -12l-72 168z" />
<glyph unicode="&#xae;" horiz-adv-x="2170" d="M100 354q0 45 26 64.5t84 27.5q34 4 82 11l102 16q54 8 113 17l114 19l275 45q12 206 23 369q4 69 9 136l8 120q3 53 5.5 86t2.5 36q0 9 6.5 20t17.5 20.5t26 15.5t33 6q27 0 44.5 -7.5t17.5 -30.5q0 -2 -2.5 -35.5t-7 -86.5t-9.5 -120t-11 -136l-30 -368l652 108l14 2 q6 1 13 2t12 1q12 0 21 -5.5t9 -22.5q0 -56 -20.5 -80.5t-52.5 -29.5l-725 -117l-182 -30l-173 -27l-155 -25l-126 -21l-89 -13l-41 -6q-10 -2 -19 -3t-17 -1q-23 0 -36.5 10t-13.5 33zM1090 236q0 12 7.5 21.5t18.5 9.5q5 0 11 -2q43 -19 94 -34q44 -13 101 -23t123 -10 q106 0 196.5 42.5t157.5 110t105 150.5t38 165q0 69 -18 132t-42.5 115t-49 89t-37.5 55l-11 16q-6 8 -6 16q0 11 7.5 19t18.5 8q4 0 9 -1.5t10 -5.5q24 -25 66 -74t82 -116.5t69.5 -150t29.5 -172.5q0 -102 -44 -193.5t-118 -161.5t-171 -111t-203 -41q-118 0 -230.5 36 t-202.5 93q-11 5 -11 18z" />
<glyph unicode="&#xaf;" horiz-adv-x="816" d="M100 381q0 76 28.5 149t74.5 136.5t105 114t121 82.5q-6 6 -25 31l-46 62l-58 78l-59 80l-52 67q-24 30 -36 42q3 3 35 25l77 55l100 70l101 69l81 56l39 27l10 4q5 2 11 2t13.5 -8t13.5 -19t10 -22.5t4 -19.5q0 -11 -15 -23q-3 -2 -19 -13l-40 -30l-54 -38l-61 -43 l-162 -115l276 -362q-92 -37 -163 -95q-30 -25 -59.5 -57.5t-52 -72t-36.5 -87.5t-14 -105q0 -102 29 -171.5t73 -115.5t97.5 -71t102 -37t86.5 -14.5t52 -2.5q28 0 28 -16q0 -8 -6 -14t-16 -7q-17 -2 -42 -3.5t-54 -1.5q-45 0 -99 5.5t-109.5 21.5t-107.5 45t-92.5 75 t-65 111.5t-24.5 155.5z" />
<glyph unicode="&#x2c9;" horiz-adv-x="816" d="M100 381q0 76 28.5 149t74.5 136.5t105 114t121 82.5q-6 6 -25 31l-46 62l-58 78l-59 80l-52 67q-24 30 -36 42q3 3 35 25l77 55l100 70l101 69l81 56l39 27l10 4q5 2 11 2t13.5 -8t13.5 -19t10 -22.5t4 -19.5q0 -11 -15 -23q-3 -2 -19 -13l-40 -30l-54 -38l-61 -43 l-162 -115l276 -362q-92 -37 -163 -95q-30 -25 -59.5 -57.5t-52 -72t-36.5 -87.5t-14 -105q0 -102 29 -171.5t73 -115.5t97.5 -71t102 -37t86.5 -14.5t52 -2.5q28 0 28 -16q0 -8 -6 -14t-16 -7q-17 -2 -42 -3.5t-54 -1.5q-45 0 -99 5.5t-109.5 21.5t-107.5 45t-92.5 75 t-65 111.5t-24.5 155.5z" />
<glyph unicode="&#xb1;" horiz-adv-x="1307" d="M100 626q0 6 1.5 21t6 30.5t12 27.5t19.5 12q8 0 14 -3l11 -4l10 -6l564 -589q-7 309 -12 569l-4 222q-2 112 -3.5 208t-2.5 168.5t-1 106.5q0 17 7 37.5t20.5 38t32.5 29t42 11.5q32 0 48.5 -27t16.5 -65q0 -6 -0.5 -37.5t-1.5 -83t-2 -119.5t-2 -146l-4 -163l-2 -172 l-11 -686q0 -29 -16 -46t-38 -17q-18 0 -30.5 4t-22.5 11t-18.5 16.5t-18.5 19.5l-36 34l-72 69l-95 91l-106 102l-281 270q-8 5 -13 15q-5 8 -8.5 20.5t-3.5 30.5zM991 284q7 283 12 512q2 97 4.5 192.5t4.5 172.5l2 130q1 52 1 63q0 16 3 33t10 30.5t19 22t30 8.5 q14 0 31 -5t39 -17q18 -9 29.5 -17.5t18.5 -19.5t9.5 -28t2.5 -44q0 -34 -4 -98t-11 -146l-15 -174l-18 -185q-21 -216 -48 -467q-2 -16 -7 -27t-13.5 -19t-24.5 -8q-23 0 -38 9t-23 23t-11 29.5t-3 29.5z" />
<glyph unicode="&#xb2;" horiz-adv-x="1724" d="M100 874q0 11 5 22t18 19.5t35.5 13.5t56.5 5q8 0 50.5 -2t109 -4t152 -4t180.5 -2q4 90 6.5 173.5t4 148.5t1.5 108v50q0 16 13.5 29.5t48.5 13.5q13 0 20.5 -6.5t10.5 -14.5q4 -10 4 -21q3 -64 6 -141q2 -66 4 -153t2 -187l722 -23q7 -1 19.5 -3.5t24.5 -10.5t21 -24 t9 -43q0 -19 -4 -32.5t-9 -23.5q-6 -11 -13 -20l-328 -299l-128 -119l-119 -112l-97 -93q-42 -41 -61 -63q-6 -5 -17.5 -16t-26 -22t-30.5 -19t-30 -8q-17 0 -29.5 7.5t-20.5 20t-11.5 28.5t-3.5 33q0 6 1 38.5t2 85t2.5 120.5t2.5 146l2 164q1 84 1 168h-517 q-18 0 -29.5 1.5t-29.5 10.5q-9 5 -20 22.5t-11 37.5zM840 802q4 -81 7 -161t5 -154t5 -141t8 -121l106 105l127 124l132 127l118 111q53 50 88.5 80t41.5 30h-638z" />
<glyph unicode="&#xb4;" horiz-adv-x="1357" d="M100 1400q0 15 6.5 28.5t17 23.5t24.5 16t28 6q20 0 34 -7l499 -319l125 -82l120 -78l108 -70l88 -59l64 -43q24 -18 30 -24q13 -12 13 -28q0 -13 -4 -21.5t-9 -13.5q-5 -6 -12 -9l-481 -192l397 -168q7 -4 12 -12q5 -7 9 -18t4 -28q0 -14 -4.5 -22.5t-17.5 -18.5 q-9 -7 -47 -24l-95 -41l-124 -52l-139 -57l-368 -147q-10 -5 -18.5 -6.5t-16.5 -1.5q-7 0 -16.5 8.5t-18 21t-14.5 26.5t-6 24q0 14 6.5 20t23.5 15q7 4 41 17l83 31l110 41l123 45l328 119l-396 192q-11 6 -18 19.5t-7 29.5t9.5 27t20.5 19q13 9 31 14l445 180l-467 276 l-174 103l-155 94l-114 70q-46 28 -53 34q-13 11 -19 20t-6 22z" />
<glyph unicode="&#xb5;" horiz-adv-x="1409" d="M100 475q0 108 29 188t71 138.5t89 98t82 65.5q20 14 65 42l106 65l132 78l145 84l142 82l125 72l92 54q38 22 47 28q19 13 34.5 15t26.5 2q23 0 23 -17q0 -56 -132 -144q-9 -6 -44 -27l-88 -53l-115 -70l-129 -78l-129 -78l-114 -70l-85 -53q-34 -22 -41 -28 q-23 -18 -57.5 -51t-66.5 -81t-54.5 -110t-22.5 -138q0 -94 31.5 -175t90.5 -141t144.5 -94t193.5 -34q35 0 69 4.5t64 10.5l53 11q23 4 37 4q8 0 17 -2t9 -9q0 -8 -13.5 -20t-49.5 -29q-48 -22 -109.5 -33t-129.5 -11q-118 0 -217 33.5t-170 98t-111 158.5t-40 214z M420 652q0 22 0.5 37t5 26t14.5 21t28 23q29 21 75 52l102 66l116 76l120 77l296 188q6 2 11 5l10 4q5 2 10 2q12 0 12 -13q0 -12 -16 -47q-12 -26 -21.5 -44t-18.5 -30t-17 -19.5t-17 -13.5l-276 -192l-105 -73l-95 -66l-74 -52l-40 -27l-23 -18q-12 -9 -23.5 -17 t-23 -13.5t-20.5 -5.5q-11 0 -20.5 12t-9.5 42z" />
<glyph unicode="&#xba;" horiz-adv-x="977" d="M100 1358q0 21 3 35t10.5 22.5t21.5 11.5t37 3q22 0 36 -1t22 -6.5t11 -18t3 -35.5v-998q0 -9 -1 -18t-5.5 -18t-14 -18t-27.5 -18q-14 -5 -25 -5q-14 0 -21 6t-10 14q-4 9 -4 21l-18 444q-3 87 -6.5 176t-6 167t-4 140t-1.5 96zM377 1358q0 37 16.5 63.5t48.5 26.5 q7 0 15 -2l15 -4q18 -9 31.5 -17t22.5 -19.5t13.5 -28.5t4.5 -44q0 -34 -1 -98.5t-2.5 -147t-4 -176.5t-4.5 -187l-11 -473l348 -265q2 -2 4 -6q4 -8 4 -15q0 -8 -4 -17.5t-16 -21.5q-20 -25 -36.5 -33t-27.5 -8q-8 0 -14 2q-3 1 -5 3l-143 105l-59 45l-58 45l-54 42 q-25 20 -43 36q-10 9 -13.5 25t-3.5 39q-7 303 -12 547l-4 204l-3 182l-3 135q-1 54 -1 63zM686 427v96q0 57 0.5 123.5t2 136.5t2.5 141t3 136l8 309q1 15 5 27q4 10 11.5 18.5t21.5 8.5q11 0 20 -5q18 -9 28 -18.5t14.5 -18.5t5.5 -17.5t1 -17.5l18 -483q3 -92 7 -181 l6 -164q3 -73 4.5 -122.5t1.5 -60.5q0 -17 -1.5 -33t-6.5 -29t-14 -20.5t-24 -7.5q-20 0 -51 18q-18 9 -29.5 16.5t-18.5 18t-10 24.5t-3 37q-2 26 -2 68z" />
<glyph unicode="&#xbb;" horiz-adv-x="2185" d="M100 1016q0 10 7 19t17.5 16.5t23 12t23.5 4.5q16 0 30 -8t29 -39l337 -698l86 83l117 115l134 134l138 140l341 346q19 17 43 30q20 11 48.5 21t61.5 10q39 0 95 -15.5t117 -46.5t121.5 -77.5t108 -109t77.5 -141t30 -172.5q0 -68 -25.5 -132.5t-68.5 -121.5t-99 -104 t-117.5 -81.5t-124 -53.5t-118.5 -19q-26 0 -35 5.5t-9 12.5q0 6 4.5 12.5t12.5 8.5q100 30 182.5 74.5t140.5 103t90 129.5t32 154q0 81 -22.5 146t-59 115.5t-82.5 87.5t-92.5 61.5t-89.5 37.5t-73 17q-5 0 -25 -18l-54 -48l-76 -72l-94 -90l-103 -103l-108 -108 l-432 -438q-13 -14 -28 -25q-13 -9 -31 -16.5t-38 -7.5q-22 0 -37.5 9.5t-26.5 20.5q-12 13 -20 30l-142 307l-57 123l-55 118l-48 101l-35 73q-21 43 -21 67z" />
<glyph unicode="&#xbd;" horiz-adv-x="1037" d="M100 1459q0 9 6.5 17.5t16.5 15t23 10.5t25 4q20 0 35.5 -12.5t42.5 -40.5l92 -95l73 -80q36 -40 65 -76l181 139l67 52l60 46l44 35q18 14 20 16q10 9 21 9q9 0 20.5 -6.5t21.5 -16.5t16.5 -22t6.5 -23q0 -13 -14 -25l-77 -65l-110 -93l-173 -143l252 -265q10 -9 18 -19 q7 -9 12.5 -20t5.5 -24q0 -8 -2.5 -16t-9.5 -16l-31 -41l-61 -78l-79 -102l-89 -115l-233 -302q91 1 168 2h67l65 1q31 1 56 1h40q38 0 71.5 -2t59 -8t40.5 -17.5t15 -29.5q0 -17 -9.5 -30t-23.5 -21.5t-29 -12.5t-27 -4q-9 0 -42.5 0.5t-81.5 1.5t-107 2l-118 2l-313 7 q-10 0 -18 3q-7 2 -12 6t-5 12q0 13 13 32l37 52l68 93l88 120l96 131l251 344l-272 294l-102 110l-91 99l-68 74q-27 30 -32 37l-21 27q-9 13 -9 26z" />
<glyph unicode="&#xbe;" horiz-adv-x="1542" d="M100 1367q0 15 9.5 26.5t24 19.5t31 12t30.5 4q20 0 39 -12t41 -40l68 -80l106 -129l129 -160l138 -173l352 -443q3 212 6 380l2 141q1 68 2 122.5t1.5 89t0.5 36.5q0 15 11.5 27.5t31.5 12.5t36.5 -8.5t28 -22.5t18 -31.5t6.5 -36.5l-23 -842l72 -73l48 818q1 8 5 15 q4 6 11 11t20 5q24 0 42 -10t30.5 -26t18.5 -35t6 -38l-97 -908q-3 -12 -14 -17t-28 -5q-12 0 -27.5 5t-26.5 17l-546 624l-137 156l-130 148l-116 132l-95 108l-65 74q-25 28 -30 33q-14 17 -22 36.5t-8 36.5z" />
<glyph unicode="&#xbf;" horiz-adv-x="1509" d="M100 921q0 11 4.5 24t12.5 23.5t19 17.5t25 7q10 0 21 -9q3 -3 27 -24l63 -56l91 -79l107 -94l349 445q7 9 15 16q7 6 15 11t18 5q14 0 23.5 -11t15 -25.5t7.5 -29t2 -21.5q0 -15 -3.5 -25.5t-8.5 -15.5l-288 -364l-108 -136l-97 -123l-73 -91q-29 -37 -35 -44 q-18 -20 -29.5 -31.5t-24.5 -11.5q-10 0 -19.5 7.5t-17.5 18.5t-13 23.5t-5 22.5q0 15 9 36.5t28 43.5l77 93l52 63l39 48l-140 128l-52 48l-47 43l-34 32q-14 12 -16 14q-9 10 -9 21zM222 4q0 23 21 51l47 63l47 61l72 92l91 118l104 135l113 145l115 150l443 574 q25 34 42 54t28.5 30.5t18 13.5t11.5 3q19 0 26.5 -20t7.5 -46q0 -28 -13 -47l-481 -675l-121 -169l-115 -162l-104 -145l-86 -119l-61 -85q-24 -33 -30 -40q-19 -23 -42 -33.5t-47 -10.5q-11 0 -25.5 4t-28.5 11.5t-23.5 19.5t-9.5 27z" />
<glyph unicode="&#xc0;" horiz-adv-x="1542" d="M100 505q0 111 32 217.5t80 194.5q5 11 10 14.5t12 3.5q10 0 18.5 -6.5t8.5 -15.5q0 -2 -2 -8q-17 -39 -29 -87q-11 -41 -20 -94.5t-9 -114.5q0 -47 7 -96t25 -98t48 -95.5t75 -87.5q79 -74 159.5 -103.5t155.5 -29.5q55 0 106 12t96 30.5t82.5 40.5t65.5 41.5t45 34.5 t21 19q6 6 13 6q14 0 26.5 -11t12.5 -21q0 -5 -3 -8q-16 -21 -44 -49.5t-65.5 -59t-83.5 -60.5t-99 -53.5t-112 -38t-121 -14.5q-85 0 -173.5 32t-178.5 111q-43 38 -73 84t-49 96.5t-28 104.5t-9 109zM379 348q0 24 12 39l359 518l135 194l120 172l89 128q35 50 42 59 q29 38 66 38q10 0 23.5 -8t26 -22t21 -33.5t8.5 -42.5q0 -14 -10 -29t-26 -36l-62 -78l-103 -130l-130 -165l-141 -179l-364 -463l-8 -8q-4 -3 -9.5 -5.5t-12.5 -2.5q-16 0 -26 17t-10 37zM585 346q0 29 24 55l316 353l119 132l106 118l80 88q32 35 39 42q20 21 43.5 38 t49.5 17q9 0 23 -10.5t26.5 -26.5t21.5 -35.5t9 -38.5q0 -16 -10 -29.5t-31 -34.5l-67 -69l-99 -100l-119 -118l-127 -124l-321 -311q-4 -4 -9 -7l-11 -4q-5 -2 -11 -2t-14.5 6t-17 16t-14.5 21.5t-6 23.5z" />
<glyph unicode="&#xc2;" horiz-adv-x="876" d="M100 547q0 8 8 21q3 5 14 23l25 36l33 49v794q0 18 7.5 27t17.5 9q13 0 26 -1t23 -3.5t16.5 -7t6.5 -12.5q2 -32 4 -76.5t3.5 -96.5t3.5 -107l4 -108q4 -124 8 -262l302 385q7 8 16 15q8 5 19 10t26 5q12 0 25 -4t23.5 -10.5t17 -14.5t6.5 -15q0 -6 -1.5 -13t-12.5 -21 q-7 -11 -29 -41l-52 -69l-68 -87l-75 -96l-197 -248h446q16 0 23 -10.5t7 -25.5t-6 -31.5t-16.5 -31t-25 -24t-31.5 -9.5q-7 0 -27 1l-49 3q-28 1 -62 3l-68 4q-81 5 -179 12l6 -184l2 -81l2 -84q1 -42 1.5 -81.5t0.5 -73.5q0 -37 -23.5 -49t-60.5 -12q-17 0 -32.5 13 t-15.5 48v504h-61q-9 0 -16 4q-6 3 -10.5 8t-4.5 16z" />
<glyph unicode="&#xc3;" horiz-adv-x="1480" d="M100 1237q0 14 8 29t21 28t28 21t29 8q10 0 15 -5q2 -2 29 -26l70 -61l96 -85l110 -97l296 -260l80 107l-156 140l-59 53l-51 46l-37 35q-15 14 -17 16q-13 13 -13 27q0 9 5.5 21t14.5 23t19.5 18.5t20.5 7.5q7 0 13 -4t12 -9l325 -282l325 414q8 10 16 18q7 7 14.5 13 t15.5 6q15 0 24.5 -11.5t15 -27t8 -30.5t2.5 -22q0 -16 -3.5 -25t-8.5 -17l-486 -619l-122 -155l-116 -148l-104 -132l-85 -109l-59 -76q-22 -29 -26 -35q-32 -43 -59 -43q-10 0 -20.5 9.5t-18.5 22.5t-13.5 27t-5.5 22q0 17 11.5 36t34.5 46l35 44l55 71l69 88l73 94 l187 244l-298 259l-111 96l-98 85l-73 63q-29 24 -33 27q-5 5 -5 14z" />
<glyph unicode="&#xc5;" horiz-adv-x="1721" d="M100 1126q0 18 8 34.5t21 29t29 20t33 7.5h1346q35 0 59.5 -3.5t24.5 -23.5q0 -13 -12 -34q-14 -22 -24 -36t-22.5 -22t-29.5 -11t-44 -3h-794q-65 -52 -116 -129q-22 -33 -42.5 -74t-37 -90.5t-26.5 -107.5t-10 -125q0 -96 24.5 -179.5t77 -145t134.5 -97t196 -35.5 q59 0 121 11.5t120 29.5t108.5 41t88.5 47q17 11 32 16t26 5q22 0 22 -17q0 -14 -20 -40q-26 -30 -83 -65.5t-136.5 -66.5t-177.5 -51.5t-205 -20.5q-99 0 -192.5 32.5t-166 99t-116.5 168.5t-44 241q0 113 24.5 213t54.5 176q34 89 79 164h-289q-12 1 -21 5q-8 4 -14 12.5 t-6 24.5zM143 1338q0 7 3.5 18.5t11 23t18 20t24.5 9.5l1084 36q18 0 36 -1q18 0 32 -3.5t23 -11.5t9 -22q0 -23 -11 -42t-29 -33.5t-40 -22.5t-44 -8h-1069q-13 2 -24 6q-9 4 -16.5 11t-7.5 20z" />
<glyph unicode="&#x152;" horiz-adv-x="1559" d="M100 887q0 12 5 22q2 4 5 9l181 260l67 96l60 86l44 62q18 24 20 26q16 25 45 25q16 0 32.5 -9t30.5 -28l414 -655l104 -165l99 -156l89 -140l72 -115l52 -80l24 -37q9 -13 12 -27.5t3 -28.5q0 -23 -10.5 -40t-38.5 -23q-8 -2 -17 -4t-17 -2q-24 0 -45.5 15t-43.5 50 l-53 88l-80 137l-95 167l-102 178l-258 453l-130 -223l-48 -83l-43 -74l-31 -53q-12 -21 -13 -24q-7 -13 -15 -24t-19 -11q-5 0 -12.5 3t-15.5 9q-25 19 -38.5 34.5t-13.5 40.5q0 14 6 31q1 2 13 24l33 58l46 79l53 90l143 243l-84 119l-325 -455q-5 -8 -10 -14 q-5 -5 -11 -9t-13 -4q-16 0 -29 10t-22.5 23t-14.5 26t-5 20zM754 1401q0 9 12 21t28 23t31.5 18.5t21.5 7.5q10 0 21.5 -7.5t23.5 -27.5l28 -51l59 -104l80 -139l89 -156l236 -416q13 -26 13 -49q0 -8 -2.5 -16t-10.5 -20q-12 -15 -22 -20.5t-18 -5.5q-6 0 -11.5 4t-10.5 9 t-10 13l-239 374l-94 149l-88 141l-73 120l-47 82q-10 19 -13.5 30.5t-3.5 19.5z" />
<glyph unicode="&#x153;" horiz-adv-x="1797" d="M100 718q0 15 11 27l276 421q4 6 10 10q5 4 12.5 7.5t18.5 3.5q16 0 29.5 -10.5t23.5 -24t15 -26.5t5 -17t-1 -6.5t-2 -4.5q-1 -3 -2 -4l-65 -106l-63 -98q-33 -53 -65 -98h169l212 331q4 4 9 8q5 3 11 6t16 3q17 0 32 -8t26 -20t17 -25t6 -23q0 -8 -2 -14q-1 -3 -2 -5 l-53 -81l-54 -82l-62 -90q70 0 164 1t195 2l200 3q99 2 181 3l139 3q56 1 71 1q22 0 43.5 -9.5t38.5 -26t27 -38.5t10 -46q0 -10 -1.5 -16.5t-3.5 -11.5q-3 -5 -5 -9l-325 -420l-8 -6q-8 -5 -24 -5q-18 0 -32.5 10t-25.5 23t-17 26.5t-6 20.5q0 8 2 12q1 2 2 3l96 132l43 55 l44 56l43 51q21 24 39 42q-43 0 -123 0.5t-182 1.5t-218 2l-230 2q-268 3 -582 6q-16 0 -31 5.5t-26.5 14t-18.5 18.5t-7 20z" />
<glyph unicode="&#x160;" horiz-adv-x="1173" d="M100 882q0 10 2.5 19t6.5 16q9 18 18.5 24t20.5 6q15 0 30 -7.5t40 -22.5l39 -22l78 -43l104 -57l118 -64l119 -64l106 -57l80 -44q32 -17 41 -21q8 16 14 37.5t11 46.5l-75 50l-87 55l-84 50q-40 24 -67 38q-18 10 -28 18.5t-14.5 20t-5.5 26.5t-1 37q0 20 13 29t28 9 q20 0 46 -13t46 -25l37 -22l60 -38l70 -46q35 -24 62 -45q0 65 -21 132t-52 127t-66.5 108.5t-64.5 78.5q-12 14 -17.5 27.5t-5.5 24.5q0 31 32 31q8 0 16.5 -1.5t21.5 -9.5q21 -15 52 -47.5t64.5 -79t66.5 -103.5t59.5 -121t43 -131.5t16.5 -134.5q0 -84 -25 -171 t-76 -166.5t-128 -144.5t-181 -104l-30 -9q-18 -5 -37 -5q-21 0 -42 10t-35 39q-13 25 -13 48q0 37 37 49q45 9 89 27t83.5 45t72.5 63t55 81l-73 41l-120 65l-146 79l-147 80l-128 70q-57 31 -84 49q-26 17 -35.5 32.5t-9.5 29.5z" />
<glyph unicode="&#x161;" horiz-adv-x="1472" d="M100 180q0 16 9 32l17 29l34 55l60 96l78 124l86 136l84 133l73 116l53 84l24 38l17 27q9 13 21.5 24t29.5 19t41 10l495 6h25q20 0 32 -2t19 -9t11 -19t8 -33q1 -4 1 -9v-8q0 -18 -9.5 -28.5t-25 -16.5t-35 -8t-40.5 -2q-5 0 -38.5 2t-85 4t-116.5 4t-132 2l54 -87 l71 -110l80 -121l83 -124l78 -116l66 -98l49 -70q19 -27 23 -31q32 -41 32 -58q0 -11 -15 -19t-30 -8q-27 0 -47.5 0.5t-37.5 5t-31 14.5t-27 28q-4 9 -27 48l-76 121l-142 221l-224 344l-200 -317l-78 -123l-73 -113l-58 -90l-36 -54l-20 -26q-11 -15 -27 -28.5t-35.5 -23 t-43.5 -9.5q-23 0 -33.5 12t-10.5 26zM521 1227q0 44 23.5 61.5t73.5 22.5q29 2 64.5 3t74.5 1q79 0 165 -2.5t158 -5.5l165 -8q12 0 22 -4q8 -3 15.5 -9t7.5 -17q0 -6 -6 -19.5t-12 -22.5t-19.5 -14t-29.5 -7.5t-33 -3t-31 -0.5q-7 0 -49 -1l-103 -3q-60 -1 -131 -2.5 t-135 -3t-113 -2.5t-66 -1q-19 0 -30 6t-11 32z" />
<glyph unicode="&#x178;" horiz-adv-x="1585" d="M100 1042q0 19 10.5 33.5t36.5 14.5q11 0 40 1q25 1 72.5 2.5t129.5 5.5v207q0 9 0.5 20t4 21t10.5 18.5t20 13.5q9 2 16.5 4t13.5 2q13 0 19 -4t8.5 -10t2.5 -14v-14l18 -563q3 -110 7 -219l6 -203q3 -94 4.5 -164.5t1.5 -101.5q0 -27 -6 -43.5t-15 -25.5t-19.5 -12 t-19.5 -3q-24 0 -38 3t-21.5 10t-10 19t-2.5 29v913h-242q-26 0 -36.5 15.5t-10.5 44.5zM616 1254q0 9 5 26.5t15.5 34.5t28 30t42.5 13q15 0 23 -4.5t13 -9.5q4 -6 6 -14v-1117l287 24q56 4 112 8.5t104.5 8t85 5.5t54.5 2q17 0 33.5 -1t30 -5.5t21.5 -14t8 -26.5 q0 -22 -6 -43t-16.5 -38t-24 -28t-28.5 -13q-14 -3 -65 -4t-127 -1h-78q-42 0 -84 1h-84q-41 1 -79 1q-89 1 -177 3q-16 0 -28 3t-21 12.5t-15.5 28.5t-10.5 52q-1 11 -2.5 61.5t-3.5 126.5l-4 170q-3 94 -5 190l-4 189q-2 92 -3 164t-2 117t-1 48z" />
<glyph unicode="&#x17d;" horiz-adv-x="1092" d="M100 539q0 7 3 13t7 11t11 10l192 132v386q-35 4 -66.5 8t-57.5 9q-24 4 -39.5 10t-25 15.5t-13.5 24t-4 35.5q0 29 19.5 42.5t50.5 13.5q12 0 23 -2t25 -5t35 -8t53 -11v228q0 37 37 37q17 0 31 -4.5t17 -32.5q5 -47 10 -107.5t14 -132.5l84 -19l90 -18l88 -19l83 -17 l184 -36q19 -5 30 -24.5t11 -36.5q0 -14 -5.5 -25t-14 -20t-18.5 -16.5t-19 -13.5q-7 -6 -33 -24l-66 -45l-90 -60l-103 -69l-107 -70l-102 -65q3 -51 6 -110l5 -122l5 -122q2 -61 3.5 -115t2.5 -97t1 -70q0 -23 -8 -35.5t-20 -18t-27 -6.5t-29 -1q-9 0 -19.5 1t-19.5 6.5 t-15 18t-6 35.5v553q-14 -10 -24 -18l-19 -16q-10 -8 -17 -15q-6 -5 -13 -9t-16 -6.5t-22 -2.5q-16 0 -35.5 6.5t-45.5 22.5q-21 13 -21 27zM423 758l384 261l-125 15l-123 15q-68 8 -136 18v-309z" />
<glyph unicode="&#x17e;" horiz-adv-x="1414" d="M100 1158q0 16 8 27t20 18t26.5 10t28.5 3l1057 -12q13 0 22 -7.5t15 -17.5t9 -20.5t3 -17.5q0 -16 -7.5 -30.5t-16.5 -25.5q-11 -13 -24 -26l-249 -245l-104 -103l-103 -104l-94 -95l-74 -78q2 -2 28 -16l69 -33l97 -46l112 -53l113 -54l104 -49l80 -39q34 -16 45 -23 q28 -15 38.5 -27.5t10.5 -26.5q0 -9 -4 -21t-11 -22.5t-15.5 -17.5t-18.5 -7q-13 0 -31 7t-41 19l-71 34l-96 46l-110 51l-114 52l-282 130q-18 7 -31 18q-11 9 -20.5 22.5t-9.5 31.5q0 17 7.5 34.5t16.5 31.5q11 16 25 30l242 227l100 97l99 97l89 91q42 43 71 77 q-84 -3 -175.5 -5t-181.5 -3l-175 -3q-85 -2 -157 -3.5t-127 -3.5t-85 -5q-23 0 -37 2.5t-24.5 7.5t-18.5 14t-17 23q-11 22 -11 39zM136 1360q0 9 6 13.5t14.5 6.5t19 2.5t19.5 0.5q267 3 483 6l181 2q90 1 163.5 2t123 1.5t60.5 0.5q13 0 26 -0.5t23 -3.5t16.5 -9t6.5 -18 q0 -8 -2.5 -17.5t-10.5 -23.5q-7 -12 -12.5 -19t-15 -10.5t-25.5 -4.5t-43 -1q-32 0 -92 1t-137 2.5t-165 3.5l-174 4q-203 5 -442 12q-7 1 -12 6t-8 14.5t-3 28.5z" />
<glyph unicode="&#x2c6;" horiz-adv-x="1496" d="M100 80q0 16 7 33t19 29l302 314l137 141l144 149l145 147l138 138l-71 80l-75 83l-61 66q-26 27 -30 32q-5 5 -7.5 11.5t-2.5 11.5q0 14 8 27t21 27q12 11 22.5 18t19.5 7q6 0 10.5 -4t9.5 -9q5 -6 16 -18l36 -38l70 -74l117 -123q91 91 144.5 150t60.5 66q16 16 31 23 t28 7q12 0 23 -9.5t25 -32.5q5 -10 7 -17.5t2 -14.5q0 -19 -16 -37l-41 -50q-11 -14 -39 -44l-66 -70l-84 -86l-91 -92l-236 -238l270 -289l100 -106l89 -95l64 -68q25 -27 27 -29q5 -6 7 -14t2 -15q0 -11 -6.5 -22.5t-23.5 -23.5q-30 -20 -50 -20q-14 0 -22 8q-4 3 -30 30 l-64 68l-86 93l-98 105l-263 282l-541 -553q-9 -9 -18 -16q-8 -6 -17 -10.5t-18 -4.5q-14 0 -22.5 8.5t-13.5 21t-7 25.5t-2 22z" />
<glyph unicode="&#x2000;" horiz-adv-x="775" />
<glyph unicode="&#x2001;" horiz-adv-x="1550" />
<glyph unicode="&#x2002;" horiz-adv-x="775" />
<glyph unicode="&#x2003;" horiz-adv-x="1550" />
<glyph unicode="&#x2004;" horiz-adv-x="516" />
<glyph unicode="&#x2005;" horiz-adv-x="387" />
<glyph unicode="&#x2006;" horiz-adv-x="258" />
<glyph unicode="&#x2007;" horiz-adv-x="258" />
<glyph unicode="&#x2008;" horiz-adv-x="193" />
<glyph unicode="&#x2009;" horiz-adv-x="310" />
<glyph unicode="&#x200a;" horiz-adv-x="86" />
<glyph unicode="&#x2018;" horiz-adv-x="1571" d="M100 1197q0 7 4.5 15.5t13.5 22.5q7 11 13 18t14 11t21 5.5t36 1.5q284 3 519 6q100 1 198.5 2.5t181.5 2.5t143 1.5t81 0.5q17 0 29.5 -4t12.5 -20q0 -11 -5 -24.5t-15 -36.5q-7 -16 -12 -25.5t-10.5 -14.5t-12.5 -7t-17 -2l-56 -2q-26 -1 -55.5 -1.5t-64.5 -0.5h-80 q-83 0 -181 1.5t-196 4t-189.5 5.5t-161.5 6l135 -113l170 -137l188 -151l190 -151l459 -363q18 -12 18 -34q0 -18 -11 -31.5t-28 -22.5t-37 -14t-39 -5q-9 0 -60.5 0.5t-130.5 1.5t-177 2l-198 2l-196 2q-96 1 -171.5 2t-121.5 1.5t-48 0.5q-8 0 -19 1.5t-23 8t-23.5 20 t-19.5 36.5q-3 9 -5.5 19.5t-2.5 16.5q0 11 4.5 17t10.5 9q6 4 15 4l1094 -37l-119 85l-381 24q-72 4 -141 8l-123 8q-55 4 -89 6t-36 2q-27 0 -51 18t-33 54q-2 7 -2.5 12.5t-0.5 10.5q0 22 11.5 29.5t26.5 7.5q2 0 31 -2l74 -4q45 -2 102.5 -5.5t116.5 -6.5 q139 -8 314 -17l-371 275l-146 111l-137 106l-113 91q-49 41 -73 66q-23 27 -33.5 41.5t-10.5 28.5z" />
<glyph unicode="&#x2019;" horiz-adv-x="969" d="M100 475v998q0 9 0.5 19.5t4 21t10.5 18.5t21 13t28 5q22 0 26 -14t6 -27l18 -442q3 -87 6.5 -174.5t6 -164.5t4 -137.5t1.5 -91.5q0 -48 -13 -66t-47 -18q-24 0 -38 2t-21.5 8t-10 18t-2.5 32zM316 1425q0 35 14.5 60t42.5 25q8 0 19.5 -3.5t23.5 -8.5q18 -8 31 -16 t21 -18.5t12 -25.5t4 -37v-192q40 3 86.5 5t87.5 3.5t70 2t34 0.5q26 0 36.5 -22.5t10.5 -49.5q0 -19 -9 -33.5t-26 -14.5h-15q-10 0 -39.5 -1.5t-84.5 -3.5l-151 -7q-2 -61 -4 -126l-5 -132q-3 -65 -5 -128.5t-3 -120.5q-4 -134 -7 -263h374q9 -1 17 -8q7 -6 12.5 -18 t5.5 -34q0 -23 -5.5 -35t-12.5 -17q-8 -6 -17 -7h-157v-314q0 -9 -6 -16t-15 -11.5t-20 -6.5t-20 -2q-26 0 -42.5 9t-16.5 27v314h-157q-23 0 -35 6t-17.5 17.5t-6.5 26.5t-1 33q-7 304 -12 549q-2 104 -4.5 205.5t-3.5 183.5l-3 138q-1 55 -1 67z" />
<glyph unicode="&#x201c;" horiz-adv-x="1420" d="M100 597q0 31 4.5 65t11.5 63t15.5 50.5t16.5 28.5q13 11 30.5 13.5t45.5 2.5q42 0 112 -1t155.5 -2.5t180.5 -3.5l186 -5q91 -3 173.5 -6t142.5 -6l-481 456q-33 33 -33 56q0 11 8 23.5t25 29.5q18 18 35 18q27 0 61 -33l57 -55l74 -70l83 -78l85 -80l206 -195 q7 -8 13 -19q5 -10 9 -24t4 -33q0 -35 -10 -53.5t-23 -27.5t-25 -10.5t-16 -1.5l-217 6q-48 1 -101.5 2.5t-110 2.5t-113.5 1.5t-111 0.5q-72 0 -136 -1t-112.5 -4t-77.5 -8t-30 -12q-6 -27 -9.5 -50.5t-3.5 -52.5q0 -56 15 -114t43.5 -112.5t70 -102.5t95.5 -84t119 -57 t140 -21q58 0 119.5 12.5t120.5 37t114 61t102 85.5q19 20 32 42l24 40q11 18 22 29.5t28 11.5q12 0 12 -17q0 -10 -5 -27t-17 -43q-27 -61 -87.5 -119t-141.5 -103.5t-175 -73t-188 -27.5q-93 0 -170.5 27.5t-140.5 74t-111 107.5t-80 127t-48.5 133t-16.5 126z" />
<glyph unicode="&#x2020;" horiz-adv-x="1594" d="M100 756q0 16 9 27.5t22.5 19.5t28.5 12t28 4h1216q37 0 63.5 -13t26.5 -42q0 -8 -2 -14.5t-5 -14.5q-9 -18 -17 -31.5t-20.5 -22.5t-32 -13.5t-50.5 -4.5q-36 0 -105 1l-157 4q-88 2 -188 5.5t-199 6.5l-505 18q-32 2 -57 9q-21 6 -38.5 17.5t-17.5 31.5zM202 422 q0 23 23 60q23 33 52.5 41.5t71.5 8.5q52 0 125.5 -1.5t157.5 -4.5l176 -6q90 -3 176.5 -7t164 -7t136.5 -6t94 -4.5t36 -1.5q6 -1 14 -2t15 -3.5t12 -7.5t5 -14q0 -21 -7.5 -34.5t-19 -21t-26 -10.5t-29.5 -3q-288 -8 -519 -13q-99 -2 -195 -4.5t-174 -4.5l-131 -2 q-52 -1 -63 -1q-17 0 -34 1.5t-30.5 7t-22 15t-8.5 25.5zM219 1045q0 14 8 21.5t19 11.5t27 5q8 0 52 1t112 3t155 4l181 4q94 2 189 3t180 1q63 0 117.5 -1t95.5 -3q26 -2 42.5 -4.5t25.5 -9t12.5 -17.5t3.5 -29q0 -38 -4 -55t-25 -17q-13 0 -66 1l-132 2l-176 4l-197 4 l-195 4q-95 2 -170 4t-123 3t-54 1h-27q-11 0 -22.5 6t-22.5 31q-6 12 -6 22z" />
<glyph unicode="&#x2021;" horiz-adv-x="783" d="M100 86q0 27 19 43l21 22l50 51l68 69l77 79l77 78l68 68l50 47q19 18 21 18v747l-360 -169q-1 -1 -2 -1h-4q-5 0 -11 6.5t-11.5 17.5t-9 24t-3.5 27t2.5 23t5.5 14q4 6 8 9l204 96l78 36l70 31q31 13 53 21.5t28 8.5q23 0 37 -8t22 -21.5t10.5 -31t2.5 -36.5 q3 -345 6 -621q1 -79 1.5 -156.5t1.5 -149t1.5 -133.5t1 -110t0.5 -78v-38q0 -33 -15 -59.5t-50 -26.5q-23 0 -38.5 11t-24.5 28t-12.5 39t-3.5 44v277l-165 -178l-62 -67l-56 -61l-44 -45l-21 -23q-3 -3 -9.5 -4.5t-14.5 -1.5q-15 0 -27.5 8t-21.5 20.5t-13.5 27t-4.5 28.5 z" />
<glyph unicode="&#x2026;" horiz-adv-x="1162" d="M100 331q0 51 1.5 117.5t4 141.5t6 154t7.5 154q8 175 19 363q1 7 1.5 16.5t3.5 17.5t9.5 14t18.5 6q19 0 31.5 -7t19.5 -18.5t9.5 -25t2.5 -26.5v-998q0 -20 -2.5 -32t-10 -18.5t-21.5 -8.5t-38 -2q-23 0 -35.5 13.5t-18.5 35t-7 49t-1 54.5zM366 -37q0 6 0.5 48 t1 110.5t1 158.5t1.5 190l2 207l2 209q1 102 1.5 194t1 163.5t1 118t0.5 57.5q0 36 15.5 48t32.5 12q37 0 60.5 -12t23.5 -48q0 -30 -1 -75t-2.5 -99t-4.5 -114l-4 -121l-6 -120q-2 -58 -5 -109l107 -70l108 -72l104 -69l88 -59l64 -44l33 -23l21 -16q12 -9 23.5 -19.5 t19 -21.5t7.5 -23q0 -20 -13 -34t-33 -18l-190 -36l-85 -17l-90 -18l-91 -19q-45 -9 -85 -18q-10 -73 -11.5 -140t-1.5 -113q0 -7 -6 -11.5t-15 -7.5t-19 -4.5t-19 -1.5q-37 0 -37 37zM475 337q72 13 143 24l127 18q66 9 127 16l-385 241z" />
<glyph unicode="&#x202f;" horiz-adv-x="310" />
<glyph unicode="&#x205f;" horiz-adv-x="387" />
<glyph unicode="&#x2122;" horiz-adv-x="1038" d="M100 1356q0 38 14.5 62t48.5 24q23 0 40.5 -10t29 -26.5t17.5 -39t6 -47.5v-553l67 25l61 24l64 23l72 24v465q0 9 5.5 21.5t26.5 12.5q18 0 34 -7t28 -18.5t19.5 -25.5t7.5 -27v-376l180 68q68 25 87 25q10 0 16 -5.5t9 -14.5t4 -19t1 -19q0 -17 -4.5 -27t-16.5 -16 q-4 -2 -35 -16l-77 -34l-105 -47l-118 -52l-118 -52l-104 -45l-74 -32q-28 -12 -30 -12v-564q-2 -15 -7 -26q-5 -10 -13.5 -17.5t-25.5 -7.5t-32.5 11.5t-27.5 27t-19.5 32.5t-7.5 28q-7 338 -12 609q-2 77 -3 153.5t-2.5 146.5t-2.5 131.5t-1.5 108.5t-1 77t-0.5 37z" />
<glyph unicode="&#xe000;" horiz-adv-x="500" d="M0 0v0v0v0v0z" />
</font>
</defs>
</svg>
