<?xml version="1.0" standalone="no"?>
<!DOCTYPE svg PUBLIC "-//W3C//DTD SVG 1.1//EN" "http://www.w3.org/Graphics/SVG/1.1/DTD/svg11.dtd" >
<svg xmlns="http://www.w3.org/2000/svg" xmlns:xlink="http://www.w3.org/1999/xlink" version="1.1">
<metadata>
Created by FontForge 20200511 at Tue Feb 20 17:26:54 2024
 By convertio
SandysScience
</metadata>
<defs>
<font id="PigpenCipher" horiz-adv-x="740" >
  <font-face 
    font-family="Pigpen Cipher"
    font-weight="500"
    font-stretch="normal"
    units-per-em="1000"
    panose-1="2 0 6 3 0 0 0 0 0 0"
    ascent="800"
    descent="-200"
    x-height="715"
    cap-height="719"
    bbox="-29.0769 -211 887.561 776.077"
    underline-thickness="50"
    underline-position="-150"
    unicode-range="U+0020-3000"
  />
<missing-glyph horiz-adv-x="500" 
d="M100 50h300v433h-300v-433zM50 0v533h400v-533h-400z" />
    <glyph glyph-name=".notdef" horiz-adv-x="500" 
d="M100 50h300v433h-300v-433zM50 0v533h400v-533h-400z" />
    <glyph glyph-name=".null" horiz-adv-x="0" 
 />
    <glyph glyph-name="nonmarkingreturn" horiz-adv-x="333" 
 />
    <glyph glyph-name="space" unicode=" " horiz-adv-x="300" 
 />
    <glyph glyph-name="exclam" unicode="!" horiz-adv-x="273" 
d="M195 675q0 -1 2 -215q0 -29 0.5 -60.5t0.5 -42.5v-113q0 -14 -9.5 -23.5t-22.5 -9.5q-14 0 -23.5 9.5t-9.5 23.5v112q0 12 -0.5 43.5t-0.5 59.5q0 40 -0.5 86.5t-1 74.5t-0.5 55q0 13 10 23t23 10t22.5 -9.5t9.5 -23.5zM160 106q18 0 30.5 -12.5t12.5 -30.5t-12.5 -31
t-30.5 -13t-31 13t-13 31t13 30.5t31 12.5z" />
    <glyph glyph-name="quotedbl" unicode="&#x22;" horiz-adv-x="200" 
d="M126 686q0 -5 -0.5 -20.5t-0.5 -30.5q-1 -19 -1 -39q-1 -54 6 -90q4 -18 -6.5 -33t-27.5 -18q-18 -4 -33 6t-18 28q-9 42 -8 108q0 21 1 41q0 14 0.5 29t0.5 19q0 18 12.5 31t30.5 13t31 -13t13 -31z" />
    <glyph glyph-name="numbersign" unicode="#" horiz-adv-x="594" 
d="M345 438q-25 -2 -48 -3h-8q-6 0 -17.5 -0.5t-16.5 -1.5q-4 -16 -7 -23q-18 -71 -27 -104h8q36 0 86 -2q3 9 6.5 22t5.5 19q9 39 18 93zM128 520q17 -3 59 -2h1q12 43 46 164q4 17 20 26.5t33 4.5q17 -4 26.5 -20t4.5 -33q-2 -9 -10 -37.5t-15 -53.5l-5 -17.5l-5 -17.5
t-4 -12h6h8q16 1 38.5 2t27.5 1q2 14 8 40q13 58 36 107q7 16 24.5 22.5t33.5 -1.5q16 -7 22.5 -24.5t-1.5 -33.5q-17 -34 -30 -89q-1 -4 -2.5 -11t-2.5 -10q10 0 14 -1q31 -3 44 -13q15 -10 18.5 -27.5t-6.5 -32.5q-9 -14 -25 -18.5t-30 3.5q-1 1 -4.5 1.5t-5.5 0.5
t-8.5 0.5t-10.5 0.5v-2q-10 -68 -22 -114q-2 -5 -4 -14.5t-4 -14.5q1 0 5 -0.5t5 -0.5q18 -4 28 -19t6 -33q-3 -17 -18 -27t-33 -7q-5 2 -19 4q-14 -42 -22 -79q-3 -18 -18 -28t-33 -6q-17 4 -27.5 19t-6.5 32q5 30 18 69q-18 1 -58 1q-4 0 -13 -0.5t-15 -0.5q-8 -36 -8 -59
q0 -18 -13 -31t-31 -13t-30.5 13t-12.5 31q0 22 6 59q-20 0 -30 1q-18 1 -30.5 14t-11.5 31t14 30.5t31 11.5q15 -1 46 -1q10 44 32 126q-32 0 -51 3q-18 3 -28.5 18t-6.5 32q3 18 17.5 28.5t32.5 7.5z" />
    <glyph glyph-name="dollar" unicode="$" horiz-adv-x="569" 
d="M225 416q0 139 -1 196q-19 -7 -30 -18q-32 -27 -33 -73q-1 -51 36 -84q13 -12 28 -21zM312 280q-1 -123 0 -198v-4q31 10 50 23q44 27 50 69q5 39 -24 66q-25 20 -76 44zM407 541q-12 39 -50 62q-17 10 -46 17q2 -141 1 -239v-7l10 -4q49 -21 64 -30q34 -17 59 -39
q65 -57 53 -143q-12 -81 -89 -131q-44 -28 -102 -39q-1 -25 2 -48q3 -18 -7.5 -32.5t-28.5 -17.5q-17 -3 -32 7.5t-18 28.5q-3 27 -3 57q-67 6 -112 37q-75 50 -75 142q0 18 12.5 31t30.5 13q19 0 31.5 -13t12.5 -31q0 -46 36 -70q29 -18 69 -22v12q-1 81 0 228v8
q-3 1 -7.5 3.5t-8 4t-6.5 3.5q-38 20 -64 43q-68 60 -65 152q3 85 63 136q35 30 84 43q0 18 -1 28q-1 18 11.5 31t30.5 14t31 -11t14 -30q1 -9 1 -27q52 -6 92 -30q69 -39 90 -112q5 -17 -3.5 -33.5t-25.5 -20.5q-17 -5 -33 3.5t-21 25.5z" />
    <glyph glyph-name="percent" unicode="%" horiz-adv-x="924" 
d="M205 602q-18 1 -38 -10q-26 -18 -38 -53q-12 -34 -2 -64q9 -26 39 -35q36 -10 62 7q26 18 37 53q9 33 -2 62q-12 26 -46 35q-4 1 -12 5zM269 671q52 -24 73 -74q25 -55 6 -122q-19 -65 -71 -100q-60 -40 -135 -19q-72 21 -97 90q-20 56 1 121q22 63 74 98q60 39 133 16
q9 -3 16 -10zM655 254q-18 -8 -37 -35q-7 -10 -11 -32.5t0 -34.5q13 -42 47 -50q34 -10 71 13q36 21 41 50q3 12 -2 28q-8 20 -29 38q-14 13 -25.5 16.5t-38.5 3.5q-9 0 -16 3zM667 338h4q41 0 62 -7q30 -8 60 -35q75 -67 59 -148q-14 -68 -83 -109q-68 -39 -136 -22
q-82 20 -109 110q-10 31 -3 73t26 69q34 48 84 70q18 7 36 -1zM654 649q-34 -72 -100 -191q-4 -8 -16 -29q-74 -135 -115 -218q-48 -103 -98 -183q-10 -16 -27.5 -20t-32.5 6q-16 9 -20 26.5t6 33.5q49 79 94 174q31 66 117 223q13 25 16 29q63 113 97 187q8 16 25 22t33 -2
q16 -7 22.5 -24.5t-1.5 -33.5z" />
    <glyph glyph-name="quotesingle" unicode="'" horiz-adv-x="243" 
d="M173 690q-3 -33 -3 -78v-20q0 -66 -9 -108q-4 -18 -19 -28t-32 -6q-18 3 -28 18t-6 33q7 38 7 91v20q0 48 3 87q2 18 16 29.5t32 9.5q18 -1 29.5 -15.5t9.5 -32.5z" />
    <glyph glyph-name="parenleft" unicode="(" horiz-adv-x="386" 
d="M297 666q-76 -52 -103 -238q-22 -151 -4 -296q6 -53 36 -139q11 -29 22 -49q16 -3 27 -17t8 -32t-17 -28q-29 -23 -61 -2q-13 7 -27 28q-16 24 -33 70q-32 87 -41 158q-19 158 4 319q13 96 44 170q37 89 97 128q15 10 32.5 6.5t27.5 -18.5t6.5 -32.5t-18.5 -27.5z" />
    <glyph glyph-name="parenright" unicode=")" horiz-adv-x="327" 
d="M106 703q109 -153 139 -327q25 -148 -5 -351q0 -1 -0.5 -4t-0.5 -5q0 -7 -3 -22l-2.5 -15t-1.5 -12q-4 -25 -14 -50q-12 -30 -36 -48q-14 -11 -32 -8.5t-29 16.5q-10 15 -7.5 32.5t16.5 28.5l3 3l5 10q6 15 8 32q2 8 4 22q0 14 3 23q0 2 0.5 5t0.5 5q28 187 5 324
q-25 153 -124 291q-10 14 -7 32t17 29q15 10 32.5 7t28.5 -18z" />
    <glyph glyph-name="asterisk" unicode="*" horiz-adv-x="406" 
d="M73 653q18 0 40 -8q1 0 25 -9q4 18 6 36l5 35q2 17 16.5 28t32.5 9q18 -3 28.5 -17t8.5 -32q-4 -28 -5 -36q-2 -16 -4 -25l26 13q25 8 34 10q18 3 32.5 -7.5t17.5 -28.5t-7.5 -32.5t-28.5 -17.5q-6 -1 -34 -14l-1 -1q1 -1 11 -19q1 -2 4 -6q11 -21 17 -29q11 -14 8.5 -32
t-16.5 -29q-15 -11 -33 -8.5t-28 17.5q-10 12 -24 39q-3 4 -4 6q-2 2 -6.5 10t-6.5 11l-2.5 -5t-2.5 -4l-15 -22q-1 -1 -1 -2q0 -16 -10 -28t-26 -15q-14 -2 -25 2q-20 8 -27 26q-4 13 -3 24l3 12q3 7 14 26l2 2q1 2 2 3q2 4 4 6l4 5l2 4q1 1 3 4q-29 12 -40 12
q-18 1 -30 14.5t-11 31.5t14 30t31 11z" />
    <glyph glyph-name="plus" unicode="+" horiz-adv-x="585" 
d="M342 471q0 -46 -2 -79q0 -5 -5 -91v-6q17 0 28 1q84 3 109 3q18 0 31 -13t13 -31t-13 -30.5t-31 -12.5q-24 0 -106 -3q-15 -1 -36 -1q-4 -102 4 -144q3 -17 -7 -32t-27 -19q-18 -4 -33 6.5t-19 27.5q-7 38 -7 104q0 15 2 55q-95 2 -152 14q-17 3 -27 18t-7 33
q4 17 19 27.5t33 6.5q59 -12 138 -12q1 4 1 14q8 128 7 161q-1 18 11.5 31t30.5 14t31 -11.5t14 -30.5z" />
    <glyph glyph-name="comma" unicode="," horiz-adv-x="258" 
d="M157 93q33 -50 31 -116t-40 -113q-11 -14 -29 -16t-32 9t-16 29.5t9 31.5q20 25 21 62.5t-17 64.5q-10 15 -6.5 32.5t19.5 27.5q15 10 32.5 6.5t27.5 -18.5z" />
    <glyph glyph-name="hyphen" unicode="-" horiz-adv-x="385" 
d="M61 327q27 6 56 6q17 1 60 -2q59 -4 86 1q18 4 33 -6t18 -28q4 -17 -6 -32t-28 -19q-30 -5 -57 -5l-52 2q-39 3 -52 2q-23 0 -39 -4q-18 -4 -33 6t-19 27q-4 18 5.5 33t27.5 19z" />
    <glyph glyph-name="period" unicode="." horiz-adv-x="250" 
d="M137 106q18 0 30.5 -12.5t12.5 -30.5t-12.5 -31t-30.5 -13t-31 13t-13 31t13 30.5t31 12.5z" />
    <glyph glyph-name="slash" unicode="/" horiz-adv-x="378" 
d="M303 666q-31 -63 -115 -313q-39 -117 -63 -198q-15 -49 -20 -72q-5 -21 -5 -23l-1 -9q0 -18 -13 -31t-31 -13t-30.5 13t-12.5 31q0 28 29 129q36 115 65 200q85 255 120 325q8 16 25 21.5t33 -2.5t21.5 -25t-2.5 -33z" />
    <glyph glyph-name="colon" unicode=":" horiz-adv-x="288" 
d="M165 491q18 0 31 -13t13 -31t-13 -30.5t-31 -12.5t-30.5 12.5t-12.5 30.5t12.5 31t30.5 13zM175 92q18 0 30.5 -12.5t12.5 -30.5t-12.5 -31t-30.5 -13t-31 13t-13 31t13 30.5t31 12.5z" />
    <glyph glyph-name="semicolon" unicode=";" horiz-adv-x="289" 
d="M155 489q18 0 31 -13t13 -31t-13 -30.5t-31 -12.5t-30.5 12.5t-12.5 30.5t12.5 31t30.5 13zM199 91q19 -49 21 -100q2 -72 -38 -112q-13 -13 -31 -13t-31 13t-13 30.5t13 30.5q13 12 13 49q-2 34 -15 69q-7 16 0 32.5t24 23.5q16 7 33 0t24 -23z" />
    <glyph glyph-name="less" unicode="&#x3c;" horiz-adv-x="682" 
d="M579 428q-15 -7 -47.5 -20.5t-52.5 -22.5q-8 -3 -32 -13q-110 -46 -187 -80q-9 -4 -43.5 -19.5t-51.5 -23.5q2 -1 31 -14q14 -6 23 -10q20 -10 29 -13q5 -3 14 -7t13 -6q34 -15 50 -21q5 -1 64 -24q31 -12 59 -22q64 -22 131 -39q18 -5 27 -20t5 -33q-4 -17 -19.5 -26.5
t-32.5 -5.5q-69 17 -139 42q-38 14 -61 22q-53 19 -65 25q-27 10 -54 23q-18 8 -29 13q-15 6 -29 13q-8 4 -22 10q-78 35 -118 45q-18 4 -27.5 20t-4.5 33q6 25 31 32q82 41 184 86q60 27 188 80q24 10 32 14q65 26 100 42q16 7 33 0t24 -23t0 -33t-23 -24z" />
    <glyph glyph-name="equal" unicode="=" horiz-adv-x="621" 
d="M62 390q79 5 115 8q72 6 101 7q147 8 237 -8q18 -3 28.5 -17.5t7.5 -32.5t-18 -28.5t-32 -7.5q-89 14 -218 7q-29 -1 -99 -7q-103 -7 -118 -7q-18 -1 -31 11t-14 30t11 31t30 14zM79 188q132 10 210 10q129 2 215 -14q17 -2 27.5 -17t7.5 -33q-2 -17 -17 -27.5t-33 -7.5
q-83 14 -199 12q-76 0 -204 -10q-18 -1 -31.5 10.5t-15.5 29.5q-1 18 10.5 31.5t29.5 15.5z" />
    <glyph glyph-name="greater" unicode="&#x3e;" horiz-adv-x="642" 
d="M549 224q-41 -22 -129 -58l-4 -2q-58 -23 -96 -41q-20 -10 -40 -22q-11 -7 -45 -29q-54 -34 -79 -47q-41 -20 -76 -27q-18 -4 -33 6t-18 28q-4 17 6 32t28 19q21 4 53 20q30 15 72 43q8 2 12 7q2 2 6 4t5 3q13 9 24 15q25 15 48 26q28 14 100 44l1 1h3q14 6 34.5 14.5
t26.5 11.5q-25 12 -92 38q-37 15 -148 53q-74 26 -80 28q-72 26 -112 41q-17 7 -24 24t0 33q7 17 23.5 24t33.5 0q48 -20 108 -40q14 -5 79 -28q114 -39 151 -54q82 -31 152 -65q21 -11 23 -36q2 -2 6 -8q8 -16 2.5 -33t-21.5 -25z" />
    <glyph glyph-name="question" unicode="?" horiz-adv-x="578" 
d="M70 535q15 78 79 131q57 48 132 59q77 12 139 -20q71 -39 87 -121q4 -27 -3 -55q-9 -28 -21 -49q-11 -21 -28 -46q-2 -4 -15 -23l-4 -5q-3 -5 -6.5 -10.5t-5.5 -7.5q-50 -74 -62 -113q-7 -20 -7 -38t-12.5 -31t-30.5 -13t-31 13t-13 31q0 30 11 65q9 30 32 71
q17 29 41 64q2 2 5.5 7.5t6.5 10.5l4 5q13 20 15 22q21 34 24 39q17 33 14 47q-7 41 -42 60q-34 19 -84 11q-52 -8 -90 -40q-40 -32 -49 -80q-3 -18 -18 -28t-33 -7q-17 3 -27.5 18t-7.5 33zM295 103q18 0 31 -12.5t13 -30.5t-13 -31t-31 -13t-30.5 13t-12.5 31t12.5 30.5
t30.5 12.5z" />
    <glyph glyph-name="at" unicode="@" horiz-adv-x="957" 
d="M591 285q-28 -35 -52 -56q-35 -33 -67 -48q-44 -20 -82 -7q-41 13 -63 64q-19 45 -22 113q-4 71 39 139q40 61 101 91q71 35 130 7q34 -14 58 -49q12 24 39 24h8q16 -3 26 -15t10 -28q0 -5 -1 -7q-3 -23 -17 -83q-2 -6 -2 -7q-11 -44 -15 -70q-6 -32 -4 -54q1 -15 7 -21
q5 -5 20 -6q23 -1 40 16q21 22 34 62q28 75 22 165q-6 81 -72 123q-65 39 -169 34q-101 -4 -192 -47t-125 -104q-88 -157 -47 -278q33 -102 151 -162q111 -56 236 -47q121 9 176 78q11 14 29 15.5t32 -9.5t16 -29t-9 -32q-79 -97 -238 -110q-148 -11 -281 56
q-150 76 -195 212q-53 157 54 348q48 85 163 140q107 51 227 56q131 6 217 -47q106 -65 113 -191q8 -103 -25 -200q-22 -59 -55 -94q-45 -45 -106 -42q-96 5 -109 100zM579 445q-13 53 -39 64q-23 11 -57 -6q-39 -19 -66 -60q-28 -44 -25 -88q3 -56 15 -83q6 -12 8 -14t3 -2
h4q2 0 14 4q22 11 44 33q50 45 99 124q1 2 3.5 6t3.5 6q-6 10 -7 16z" />
    <glyph glyph-name="A" unicode="A" horiz-adv-x="738" 
d="M664 683q3 -162 5 -457v-113v-73q0 -23 -22 -30q-12 -6 -19 -6h-293q-120 0 -166 -1h-128q-13 0 -21.5 9t-8.5 22t8.5 22t21.5 9h128h166q134 1 272 1v47v113q0 276 -5 455q0 13 8.5 22t21.5 10q13 0 22 -8.5t10 -21.5z" />
    <glyph glyph-name="B" unicode="B" horiz-adv-x="729" 
d="M139 688v-225v-97q0 -83 -0.5 -176.5t-0.5 -125.5q116 0 225 -2q49 -1 99 -1q50 -1 134 -1q-2 76 -2 262v86q1 180 0 277q0 14 9 23t22 9t22 -9t9 -22q2 -90 1 -278v-86q-1 -167 3 -290q0 -13 -8.5 -22t-21.5 -10q-6 -3 -13 -3q-97 0 -156 1q-11 0 -41 0.5t-58 0.5
q-190 3 -254 3q-13 0 -22 9t-9 22v4q-1 3 -1 8v322q1 48 1 96v225q0 13 9 22t22 9t22 -9t9 -22z" />
    <glyph glyph-name="C" unicode="C" horiz-adv-x="754" 
d="M152 688q0 -162 1 -325v-298q122 0 232 -1h5q73 0 153.5 -0.5t110.5 -0.5q13 0 22 -9t9 -22t-9 -22t-22 -9q-30 0 -110.5 0.5t-154.5 0.5h-4q-127 1 -260 1q-18 0 -27 16q-7 9 -7 19v325q-1 163 -1 325q0 13 9 22t22 9t22 -9t9 -22z" />
    <glyph glyph-name="D" unicode="D" 
d="M110 68q130 0 260 -1h108h127q0 77 -3 289v21q-3 184 -3 271h-317h-174q-14 0 -23.5 9.5t-9.5 22.5q0 14 9.5 23.5t23.5 9.5h174h349q23 0 30 -22q3 -6 3 -13q0 -92 3 -300v-21q3 -242 3 -322q0 -13 -9 -22.5t-23 -9.5q-2 -1 -8 -1h-152h-108q-130 1 -260 1
q-14 0 -23.5 9.5t-9.5 22.5t9.5 23t23.5 10z" />
    <glyph glyph-name="E" unicode="E" horiz-adv-x="736" 
d="M592 648h-157h-66q-108 1 -223 1q0 -150 2 -294q1 -73 1 -146q1 -51 1 -141h1h8h2h1q72 0 180 -1h97h162q0 44 -2 198q-2 66 -3 117q-4 223 -4 266zM657 678q0 -91 4 -295q1 -47 3 -117q2 -186 2 -233q0 -13 -9.5 -22.5t-22.5 -9.5q-6 0 -9 1h-186h-98q-169 1 -209 1h-3
q-4 -2 -12 -2q-13 0 -22.5 9.5t-9.5 22.5q0 110 -1 176q0 72 -1 145q-2 161 -2 322q0 9 3 15q9 23 31 23q127 0 254 -1h66h187q15 0 24 -11q11 -9 11 -24z" />
    <glyph glyph-name="F" unicode="F" horiz-adv-x="660" 
d="M121 719q107 0 217 -1h54h166q13 0 22.5 -10t9.5 -23t-9.5 -22.5t-22.5 -9.5h-166h-54q-91 1 -187 1q0 -150 -2 -293q-2 -286 -2 -292q8 0 186 -2q38 -1 76 -1q55 -1 143 -1q14 0 23.5 -9.5t9.5 -23.5q0 -13 -9.5 -22.5t-23.5 -9.5q-88 0 -144 1q-38 0 -75 1
q-41 0 -88 0.5t-75.5 1t-55.5 0.5q-14 0 -23.5 9.5t-9.5 22.5q0 2 0.5 4.5t0.5 3.5l2 318q2 160 2 320q0 6 4 16q9 21 31 21z" />
    <glyph glyph-name="G" unicode="G" horiz-adv-x="753" 
d="M85 718h191h89q140 -1 279 -1q10 0 17 -4q17 -10 17 -29q0 -40 2 -270q0 -6 0.5 -23t0.5 -33q2 -164 2 -328q0 -14 -9.5 -23t-22.5 -9q-14 0 -23.5 9.5t-9.5 22.5q0 164 -2 327q0 16 -0.5 33t-0.5 23q-2 200 -2 239q-25 0 -103 0.5t-145 0.5h-89h-191q-13 0 -22.5 9.5
t-9.5 23.5t9.5 23t22.5 9z" />
    <glyph glyph-name="H" unicode="H" horiz-adv-x="732" 
d="M661 677q0 -81 -3 -321t-3 -322q0 -14 -9.5 -23.5t-22.5 -9.5t-23 9.5t-10 23.5q0 82 3 322v1q3 217 3 297q-118 0 -218 1h-11q-112 1 -231 1v-491v-130q0 -13 -10 -23t-23 -10t-22.5 9.5t-9.5 23.5v130v520q0 10 4 17q9 19 30 19q131 0 262 -1h11q120 -1 252 -1
q13 0 22.5 -9.5t9.5 -23.5q0 -6 -1 -9z" />
    <glyph glyph-name="I" unicode="I" horiz-adv-x="730" 
d="M99 717q131 0 264 1h20q113 1 245 1q14 0 23.5 -9.5t9.5 -23.5q0 -13 -9.5 -22.5t-23.5 -9.5q-132 0 -244 -1h-20q-115 -1 -235 -1v-525v-92q0 -13 -9.5 -22.5t-22.5 -9.5q-14 0 -23.5 9.5t-9.5 22.5v92v552q0 5 4 15q7 23 31 23z" />
    <glyph glyph-name="J" unicode="J" horiz-adv-x="628" 
d="M281 399q23 0 38.5 -15.5t15.5 -38.5t-16 -39t-38 -16q-23 0 -39 16t-16 39q0 22 16 38t39 16zM527 4h-242q-99 0 -137 -1h-105q-13 0 -22 9t-9 22t9 22t22 9h105h137q102 1 211 1v47v114q0 218 -5 460q-1 13 8 22t22 10q13 0 22 -8.5t9 -21.5q5 -183 5 -462v-114v-71
q1 -2 1 -7q0 -13 -9 -22t-22 -9z" />
    <glyph glyph-name="K" unicode="K" horiz-adv-x="719" 
d="M59 32q0 164 -2 327q-2 326 -2 327q0 14 9.5 23.5t23.5 9.5q13 0 22.5 -9.5t9.5 -23.5q0 -40 0.5 -82.5t1 -113t0.5 -131.5q2 -145 2 -296q12 0 49 -0.5t68 -0.5q27 0 57.5 -0.5t41.5 -0.5q136 0 243 3q-6 184 -7 297q-2 190 -2 329q0 13 9.5 22.5t23.5 9.5q13 0 22.5 -9
t9.5 -23q0 -140 2 -328q1 -173 9 -327q0 -14 -9 -23.5t-22 -10.5h-1q-3 -1 -9 -1q-107 -4 -269 -4q-11 0 -41.5 0.5t-58.5 0.5q-41 0 -86.5 0.5t-61.5 0.5q-14 0 -23.5 9.5t-9.5 22.5v1v1zM341 411q23 0 39 -16.5t16 -38.5t-16 -38t-39 -16t-38.5 16t-15.5 38q0 23 16 39
t38 16z" />
    <glyph glyph-name="L" unicode="L" horiz-adv-x="699" 
d="M122 686q0 -141 1 -234v-91v-295q114 0 221 -1h253q13 0 22.5 -9.5t9.5 -23.5t-9.5 -23t-22.5 -9h-253h-1q-127 1 -253 1q-14 0 -23 9.5t-9 22.5v7v321v91q-1 93 -1 234q0 14 9.5 23.5t23.5 9.5q13 0 22.5 -9.5t9.5 -23.5zM341 411q23 0 39 -16.5t16 -38.5t-16 -38
t-39 -16t-38.5 16t-15.5 38q0 23 16 39t38 16z" />
    <glyph glyph-name="M" unicode="M" horiz-adv-x="814" 
d="M374 398q22 0 38 -16t16 -38q0 -23 -16 -39t-38 -16t-38.5 16.5t-16.5 38.5t16 38t39 16zM111 64h197h366q0 78 3 294v5q3 207 3 288q-90 0 -177 1h-46q-235 1 -352 -1q-13 -1 -23 8.5t-10 23.5q0 13 9 22.5t23 10.5q118 2 353 1h46q103 -1 201 -1h4h4q14 0 23.5 -10
t9.5 -23q0 -84 -3 -321v-5q-3 -163 -3 -324q0 -27 -28 -33q-1 0 -4 -0.5t-5 -0.5h-394h-197q-13 0 -22.5 10t-9.5 23t9.5 22.5t22.5 9.5z" />
    <glyph glyph-name="N" unicode="N" horiz-adv-x="728" 
d="M585 653h-157h-67q-108 1 -222 1q0 -150 2 -294q0 -40 0.5 -85t0.5 -61q0 -26 0.5 -73t0.5 -68h1h8h2h1q71 0 179 -1h98h162q0 82 -3 198q0 23 -2 117q-4 223 -4 266zM363 412q22 0 38 -16t16 -39t-15.5 -38.5t-38.5 -15.5t-39 16t-16 38q0 23 16 39t39 16zM650 683
q0 -91 4 -295q2 -94 2 -117q3 -140 3 -233q0 -13 -9.5 -22.5t-23.5 -9.5q-5 0 -8 1h-186h-98q-169 1 -209 1h-3q-4 -2 -12 -2q-14 0 -23 9t-9 23q0 26 -0.5 84t-0.5 92q0 16 -0.5 60.5t-0.5 84.5q-2 161 -2 322q0 9 3 15q7 23 31 23q127 0 254 -1h66h187q14 0 24 -10
q11 -9 11 -25z" />
    <glyph glyph-name="O" unicode="O" horiz-adv-x="669" 
d="M99 719q114 0 233 -1h58h177q13 0 23 -10t10 -23t-9.5 -22.5t-23.5 -9.5h-177h-58q-100 1 -204 1q0 -152 -2 -298q-2 -286 -2 -293q23 0 51 -0.5t72 -1t81 -0.5q40 -1 80 -1q59 -1 153 -1q13 0 22.5 -9.5t9.5 -23.5t-9.5 -23t-22.5 -9q-94 0 -154 1q-40 0 -80 1
q-44 0 -94 0.5t-80 1t-59 0.5q-13 0 -20 7q-15 10 -15 27q0 40 0.5 82t1 112t0.5 131q2 162 2 324q0 11 6 18q8 20 30 20zM341 411q23 0 39 -16.5t16 -38.5t-16 -38t-39 -16t-38.5 16t-15.5 38q0 23 16 39t38 16z" />
    <glyph glyph-name="P" unicode="P" horiz-adv-x="713" 
d="M579 34q0 36 -0.5 135t-0.5 189q-1 72 -1 145v154q-61 0 -95 -1q-66 0 -130 -1q-130 -2 -258 -2q-14 0 -23.5 9.5t-9.5 22.5t9.5 23t23.5 10q128 0 257 2q65 1 130 1q47 1 129 1q14 0 23.5 -10t9.5 -23q0 -1 -0.5 -4t-0.5 -4v-178q0 -72 1 -145q0 -90 0.5 -189t0.5 -135
q0 -13 -9.5 -22.5t-23.5 -9.5q-13 0 -22.5 9t-9.5 23zM341 411q23 0 39 -16.5t16 -38.5t-16 -38t-39 -16t-38.5 16t-15.5 38q0 23 16 39t38 16z" />
    <glyph glyph-name="Q" unicode="Q" horiz-adv-x="797" 
d="M720 684v-24q0 -102 4 -303q3 -246 3 -328q0 -13 -9.5 -22.5t-22.5 -9.5q-14 0 -23.5 9.5t-9.5 22.5q0 81 -3 327q-4 200 -4 301q-137 0 -269 -1q-128 -1 -264 -1q0 -45 2 -187q0 -56 1 -111q2 -162 2 -324q0 -13 -9.5 -22.5t-22.5 -9.5q-14 0 -23.5 9.5t-9.5 22.5
q0 161 -2 323q-1 55 -1 111q-2 166 -2 213q0 7 3 13q2 11 11 19t21 8q147 0 294 1t294 1q11 0 21 -8q19 -9 19 -30zM388 412q22 0 38.5 -16t16.5 -39q0 -22 -16 -38t-39 -16q-22 0 -38 15.5t-16 38.5t16 39t38 16z" />
    <glyph glyph-name="R" unicode="R" horiz-adv-x="730" 
d="M99 717q131 0 264 1h20q113 1 245 1q14 0 23.5 -9.5t9.5 -23.5q0 -13 -9.5 -22.5t-23.5 -9.5q-132 0 -244 -1h-20q-115 -1 -235 -1v-525v-92q0 -13 -9.5 -22.5t-22.5 -9.5q-14 0 -23.5 9.5t-9.5 22.5v92v552q0 5 4 15q7 23 31 23zM371 423q23 0 38.5 -16t15.5 -39
q0 -22 -15.5 -38t-38.5 -16t-39 16t-16 38q0 23 16 39t39 16z" />
    <glyph glyph-name="S" unicode="S" horiz-adv-x="710" 
d="M90 696q86 -186 201 -445q0 -1 1 -2l3 -6q2 -6 3 -7q1 -3 3.5 -8t3.5 -8q12 -26 14 -30q23 -51 42 -87q125 316 216 589q4 13 16 19t25 2q13 -5 19 -16.5t2 -24.5q-93 -282 -240 -650q-6 -16 -22 -19q-25 -11 -40 12q-34 52 -78 148q-12 27 -14 31q-3 6 -6 15l-4 8
q-1 3 -3 7q-115 259 -201 445q-5 13 -0.5 25.5t16.5 17.5q12 6 25 1.5t18 -17.5z" />
    <glyph glyph-name="T" unicode="T" horiz-adv-x="691" 
d="M606 361q-219 -144 -265 -175q-162 -110 -251 -178q-10 -8 -24 -6.5t-21 12.5q-8 10 -6.5 23.5t12.5 21.5q107 82 254 181q63 43 221 146q-296 159 -480 273q-11 7 -14 20t4 25q7 11 20 14t24 -4q191 -119 524 -295q19 -10 17 -31q0 -18 -15 -27z" />
    <glyph glyph-name="U" unicode="U" 
d="M655 661q-216 -133 -273 -167q-8 -5 -21.5 -13t-18.5 -11q-2 -1 -5.5 -3.5t-5.5 -3.5q-7 -5 -22 -13.5t-20 -11.5q-27 -14 -113 -64q-9 -5 -24.5 -14t-20.5 -12q15 -8 36.5 -20.5t36 -20.5t19.5 -11q28 -16 72.5 -41t63.5 -36q128 -71 132 -73q91 -51 153 -83
q11 -7 15 -19.5t-2 -24.5t-19 -16t-25 2q-75 41 -153 84q-91 50 -132 73q-8 4 -56.5 31.5t-80.5 45.5q-95 55 -140 80q-12 7 -15.5 20t3.5 24q4 9 15 14q1 1 2 1q19 12 88 53q9 6 56.5 32.5t56.5 31.5q7 4 20.5 12t20.5 12q5 3 11 7q13 7 39 23l273 167q12 7 25 4t20 -15
q7 -11 3.5 -24t-14.5 -20z" />
    <glyph glyph-name="V" unicode="V" horiz-adv-x="743" 
d="M380 703q3 -6 9 -20t10 -22q15 -32 19 -41q8 -18 20.5 -44.5t17.5 -38.5q54 -121 74 -165q79 -175 141 -328q5 -12 0 -24.5t-18 -17.5t-25.5 0t-16.5 18q-54 132 -140 326q-6 14 -32 71t-43 93q-5 12 -17 38.5t-20 44.5q-1 2 -4 8.5t-5 10.5q-166 -390 -263 -594
q-5 -12 -18 -16.5t-25 1.5q-12 5 -16.5 18t1.5 25q117 250 289 658q5 13 18 17.5t25 -0.5q6 -2 11 -8q5 -3 8 -10z" />
    <glyph glyph-name="W" unicode="W" 
d="M324 245q3 -6 4 -7q1 -3 6 -16q4 -7 14 -30q32 -69 43 -87q125 316 216 589q4 13 16 19t25 2t19 -16t2 -25q-101 -303 -240 -650q-6 -15 -22 -19q-26 -10 -40 12q-34 52 -78 148q-1 2 -6 13t-8 18q-1 2 -3 7t-4 8l-3 8q-2 3 -4 7q-137 308 -200 445q-6 13 -1.5 25.5
t17.5 17.5q7 4 18 0t18 -10l7 -6q86 -186 201 -445q1 -2 3 -8zM384 470q23 0 39 -16t16 -38q0 -23 -16 -39t-39 -16t-38.5 16t-15.5 39q0 22 16 38t38 16z" />
    <glyph glyph-name="X" unicode="X" horiz-adv-x="660" 
d="M576 364q-189 -123 -266 -175q-133 -89 -251 -178q-10 -8 -23.5 -6.5t-21.5 12.5t-6.5 24t12.5 21q107 82 254 181q76 52 222 146q-294 157 -481 273q-11 7 -14 20t4 25q7 11 20 14t25 -4q197 -123 523 -295q19 -9 17 -30q2 -18 -14 -28zM219 430q23 0 38.5 -16t15.5 -38
q0 -23 -16 -39t-38 -16q-23 0 -39 16t-16 39t16 38.5t39 15.5z" />
    <glyph glyph-name="Y" unicode="Y" horiz-adv-x="736" 
d="M413 424q23 0 38.5 -16t15.5 -38q0 -23 -15.5 -39t-38.5 -16t-39 16t-16 39q0 22 16 38t39 16zM631 661q-178 -114 -328 -195q-34 -18 -79 -46q-4 -2 -42 -25t-48 -29q-11 -6 -31 -18q343 -182 545 -283q12 -6 16.5 -18.5t-1.5 -24.5t-19 -16.5t-25 1.5
q-234 117 -601 313q-12 6 -16 19t3 25q8 14 24 17q47 26 72 41q82 50 89 54q32 19 82 47q141 76 324 192q12 8 25 5t20 -14q7 -12 4 -25t-14 -20z" />
    <glyph glyph-name="Z" unicode="Z" horiz-adv-x="725" 
d="M363 699q2 -5 19 -41q14 -32 18 -41q8 -16 38 -82q17 -36 43 -93t32 -71q83 -186 140 -325q5 -12 0 -24.5t-17 -17.5q-13 -5 -25.5 0t-17.5 18q-55 135 -140 323q-54 119 -74 163q-22 48 -38 82q0 1 -1.5 4l-3.5 7t-3 7q-159 -374 -261 -590q-6 -12 -18.5 -16.5
t-24.5 1.5q-12 5 -17 18t1 25q106 225 288 654q5 13 17.5 18t25.5 0q8 -3 12 -9q0 -1 3 -4.5t4 -5.5zM327 370q22 0 38 -16t16 -39t-15.5 -38.5t-38.5 -15.5t-39 16t-16 38q0 23 16 39t39 16z" />
    <glyph glyph-name="bracketleft" unicode="[" horiz-adv-x="332" 
d="M215 641q-18 2 -52 0q-20 -2 -28 -4h-1q-2 -5 -3 -12q-2 -13 -2 -50q0 -6 2 -44t2 -46v-84q-1 -77 -1 -209q0 -96 4 -194q4 -61 5 -66l1 -2v-3h16q3 1 10.5 1.5t11.5 0.5h7q3 1 8 1q3 0 7.5 0.5t6.5 0.5q18 0 31 -13t13 -31t-13 -30.5t-31 -12.5q-3 0 -22 -2
q-5 0 -13.5 -0.5t-12.5 -1.5q-28 0 -40 2q-11 1 -22 6q-16 6 -26 18q-9 11 -14 29q0 2 -1 7l-2 10t-1 10q-3 26 -6 71q-4 102 -4 198q0 134 1 211v83q0 7 -2 41q-2 38 -2 48q0 37 3 64q8 43 28 64q8 8 24 15q12 4 20 5q11 3 40 5q35 3 65 1q18 -2 29.5 -15.5t10.5 -31.5
q-2 -18 -15.5 -29.5t-31.5 -10.5z" />
    <glyph glyph-name="backslash" unicode="\" horiz-adv-x="395" 
d="M62 694q25 -63 43 -113q9 -22 25 -66q59 -157 84 -219q11 -28 37 -82q2 -4 8 -14q0 -4 7 -15q40 -82 57 -129q6 -16 -1.5 -32.5t-24.5 -22.5q-17 -7 -33.5 1t-22.5 25q-20 53 -53 119q-7 11 -7 15q-2 3 -4.5 8l-3.5 7q-19 38 -40 87q-28 70 -84 222q-7 18 -25 66
q-18 49 -43 110q-7 17 0 33.5t24 23.5q16 7 33 0t24 -24z" />
    <glyph glyph-name="bracketright" unicode="]" horiz-adv-x="299" 
d="M188 -201q-8 -1 -26 -1h-54q-27 1 -65 1q-18 0 -31 12.5t-13 30.5t12.5 31t30.5 13q40 0 68 -1h26q-11 161 -9 396q1 153 10 351h-2q-10 1 -43 1h-50q-18 1 -30.5 14t-12.5 31q1 18 14 30.5t31 11.5h49q14 0 28.5 -0.5t19.5 -0.5q20 -2 31 -4q7 0 15 -5q17 -2 28 -15
t10 -30q-10 -195 -11 -385q-2 -248 10 -403q1 -5 -1 -13q6 -8 6 -19q1 -18 -11 -31.5t-30 -14.5z" />
    <glyph glyph-name="asciicircum" unicode="^" horiz-adv-x="536" 
d="M311 703q67 -172 151 -354q8 -17 2 -33.5t-23 -24.5q-16 -8 -33 -1.5t-24 22.5q-71 154 -120 275q-5 -12 -14 -34.5t-12 -29.5q-55 -137 -99 -226q-8 -16 -25 -22t-33 2q-17 8 -22.5 25t2.5 34q44 87 97 220q34 88 48 121q0 2 7 18q8 22 31 27q3 2 11 6q17 7 33.5 -0.5
t22.5 -24.5z" />
    <glyph glyph-name="underscore" unicode="_" horiz-adv-x="639" 
d="M16 -76q69 2 201 1h35q192 -3 272 1q18 1 31 -11t15 -30q1 -18 -11.5 -31t-30.5 -14q-79 -5 -277 -2h-35q-131 1 -198 -1q-18 0 -31 12.5t-13 30.5q-1 18 11.5 31t30.5 13z" />
    <glyph glyph-name="grave" unicode="`" horiz-adv-x="283" 
d="M93 746q14 -7 28 -21l23 -23q21 -20 24 -23q6 -4 8 -5q1 -1 2 -1q18 -4 28 -19t6 -32q-4 -18 -18.5 -28t-32.5 -7q-23 5 -48 24q-12 10 -32 31q-26 26 -32 29q-15 10 -19.5 27t4.5 33t26.5 20.5t32.5 -5.5z" />
    <glyph glyph-name="a" unicode="a" horiz-adv-x="738" 
d="M664 683q3 -162 5 -457v-113v-73q0 -23 -22 -30q-12 -6 -19 -6h-293q-120 0 -166 -1h-128q-13 0 -21.5 9t-8.5 22t8.5 22t21.5 9h128h166q134 1 272 1v47v113q0 276 -5 455q0 13 8.5 22t21.5 10q13 0 22 -8.5t10 -21.5z" />
    <glyph glyph-name="b" unicode="b" horiz-adv-x="729" 
d="M139 688v-225v-97q0 -83 -0.5 -176.5t-0.5 -125.5q116 0 225 -2q49 -1 99 -1q50 -1 134 -1q-2 76 -2 262v86q1 180 0 277q0 14 9 23t22 9t22 -9t9 -22q2 -90 1 -278v-86q-1 -167 3 -290q0 -13 -8.5 -22t-21.5 -10q-6 -3 -13 -3q-97 0 -156 1q-11 0 -41 0.5t-58 0.5
q-190 3 -254 3q-13 0 -22 9t-9 22v4q-1 3 -1 8v322q1 48 1 96v225q0 13 9 22t22 9t22 -9t9 -22z" />
    <glyph glyph-name="c" unicode="c" horiz-adv-x="754" 
d="M152 688q0 -162 1 -325v-298q122 0 232 -1h5q73 0 153.5 -0.5t110.5 -0.5q13 0 22 -9t9 -22t-9 -22t-22 -9q-30 0 -110.5 0.5t-154.5 0.5h-4q-127 1 -260 1q-18 0 -27 16q-7 9 -7 19v325q-1 163 -1 325q0 13 9 22t22 9t22 -9t9 -22z" />
    <glyph glyph-name="d" unicode="d" 
d="M110 68q130 0 260 -1h108h127q0 77 -3 289v21q-3 184 -3 271h-317h-174q-14 0 -23.5 9.5t-9.5 22.5q0 14 9.5 23.5t23.5 9.5h174h349q23 0 30 -22q3 -6 3 -13q0 -92 3 -300v-21q3 -242 3 -322q0 -13 -9 -22.5t-23 -9.5q-2 -1 -8 -1h-152h-108q-130 1 -260 1
q-14 0 -23.5 9.5t-9.5 22.5t9.5 23t23.5 10z" />
    <glyph glyph-name="e" unicode="e" horiz-adv-x="736" 
d="M592 648h-157h-66q-108 1 -223 1q0 -150 2 -294q1 -73 1 -146q1 -51 1 -141h1h8h2h1q72 0 180 -1h97h162q0 44 -2 198q-2 66 -3 117q-4 223 -4 266zM657 678q0 -91 4 -295q1 -47 3 -117q2 -186 2 -233q0 -13 -9.5 -22.5t-22.5 -9.5q-6 0 -9 1h-186h-98q-169 1 -209 1h-3
q-4 -2 -12 -2q-13 0 -22.5 9.5t-9.5 22.5q0 110 -1 176q0 72 -1 145q-2 161 -2 322q0 9 3 15q9 23 31 23q127 0 254 -1h66h187q15 0 24 -11q11 -9 11 -24z" />
    <glyph glyph-name="f" unicode="f" horiz-adv-x="660" 
d="M121 719q107 0 217 -1h54h166q13 0 22.5 -10t9.5 -23t-9.5 -22.5t-22.5 -9.5h-166h-54q-91 1 -187 1q0 -150 -2 -293q-2 -286 -2 -292q8 0 186 -2q38 -1 76 -1q55 -1 143 -1q14 0 23.5 -9.5t9.5 -23.5q0 -13 -9.5 -22.5t-23.5 -9.5q-88 0 -144 1q-38 0 -75 1
q-41 0 -88 0.5t-75.5 1t-55.5 0.5q-14 0 -23.5 9.5t-9.5 22.5q0 2 0.5 4.5t0.5 3.5l2 318q2 160 2 320q0 6 4 16q9 21 31 21z" />
    <glyph glyph-name="g" unicode="g" horiz-adv-x="753" 
d="M85 718h191h89q140 -1 279 -1q10 0 17 -4q17 -10 17 -29q0 -40 2 -270q0 -6 0.5 -23t0.5 -33q2 -164 2 -328q0 -14 -9.5 -23t-22.5 -9q-14 0 -23.5 9.5t-9.5 22.5q0 164 -2 327q0 16 -0.5 33t-0.5 23q-2 200 -2 239q-25 0 -103 0.5t-145 0.5h-89h-191q-13 0 -22.5 9.5
t-9.5 23.5t9.5 23t22.5 9z" />
    <glyph glyph-name="h" unicode="h" horiz-adv-x="732" 
d="M661 677q0 -81 -3 -321t-3 -322q0 -14 -9.5 -23.5t-22.5 -9.5t-23 9.5t-10 23.5q0 82 3 322v1q3 217 3 297q-118 0 -218 1h-11q-112 1 -231 1v-491v-130q0 -13 -10 -23t-23 -10t-22.5 9.5t-9.5 23.5v130v520q0 10 4 17q9 19 30 19q131 0 262 -1h11q120 -1 252 -1
q13 0 22.5 -9.5t9.5 -23.5q0 -6 -1 -9z" />
    <glyph glyph-name="i" unicode="i" horiz-adv-x="730" 
d="M99 717q131 0 264 1h20q113 1 245 1q14 0 23.5 -9.5t9.5 -23.5q0 -13 -9.5 -22.5t-23.5 -9.5q-132 0 -244 -1h-20q-115 -1 -235 -1v-525v-92q0 -13 -9.5 -22.5t-22.5 -9.5q-14 0 -23.5 9.5t-9.5 22.5v92v552q0 5 4 15q7 23 31 23z" />
    <glyph glyph-name="j" unicode="j" horiz-adv-x="628" 
d="M281 399q23 0 38.5 -15.5t15.5 -38.5t-16 -39t-38 -16q-23 0 -39 16t-16 39q0 22 16 38t39 16zM527 4h-242q-99 0 -137 -1h-105q-13 0 -22 9t-9 22t9 22t22 9h105h137q102 1 211 1v47v114q0 218 -5 460q-1 13 8 22t22 10q13 0 22 -8.5t9 -21.5q5 -183 5 -462v-114v-71
q1 -2 1 -7q0 -13 -9 -22t-22 -9z" />
    <glyph glyph-name="k" unicode="k" horiz-adv-x="719" 
d="M59 32q0 164 -2 327q-2 326 -2 327q0 14 9.5 23.5t23.5 9.5q13 0 22.5 -9.5t9.5 -23.5q0 -40 0.5 -82.5t1 -113t0.5 -131.5q2 -145 2 -296q12 0 49 -0.5t68 -0.5q27 0 57.5 -0.5t41.5 -0.5q136 0 243 3q-6 184 -7 297q-2 190 -2 329q0 13 9.5 22.5t23.5 9.5q13 0 22.5 -9
t9.5 -23q0 -140 2 -328q1 -173 9 -327q0 -14 -9 -23.5t-22 -10.5h-1q-3 -1 -9 -1q-107 -4 -269 -4q-11 0 -41.5 0.5t-58.5 0.5q-41 0 -86.5 0.5t-61.5 0.5q-14 0 -23.5 9.5t-9.5 22.5v1v1zM341 411q23 0 39 -16.5t16 -38.5t-16 -38t-39 -16t-38.5 16t-15.5 38q0 23 16 39
t38 16z" />
    <glyph glyph-name="l" unicode="l" horiz-adv-x="699" 
d="M122 686q0 -141 1 -234v-91v-295q114 0 221 -1h253q13 0 22.5 -9.5t9.5 -23.5t-9.5 -23t-22.5 -9h-253h-1q-127 1 -253 1q-14 0 -23 9.5t-9 22.5v7v321v91q-1 93 -1 234q0 14 9.5 23.5t23.5 9.5q13 0 22.5 -9.5t9.5 -23.5zM341 411q23 0 39 -16.5t16 -38.5t-16 -38
t-39 -16t-38.5 16t-15.5 38q0 23 16 39t38 16z" />
    <glyph glyph-name="m" unicode="m" horiz-adv-x="814" 
d="M374 398q22 0 38 -16t16 -38q0 -23 -16 -39t-38 -16t-38.5 16.5t-16.5 38.5t16 38t39 16zM111 64h197h366q0 78 3 294v5q3 207 3 288q-90 0 -177 1h-46q-235 1 -352 -1q-13 -1 -23 8.5t-10 23.5q0 13 9 22.5t23 10.5q118 2 353 1h46q103 -1 201 -1h4h4q14 0 23.5 -10
t9.5 -23q0 -84 -3 -321v-5q-3 -163 -3 -324q0 -27 -28 -33q-1 0 -4 -0.5t-5 -0.5h-394h-197q-13 0 -22.5 10t-9.5 23t9.5 22.5t22.5 9.5z" />
    <glyph glyph-name="n" unicode="n" horiz-adv-x="728" 
d="M585 653h-157h-67q-108 1 -222 1q0 -150 2 -294q0 -40 0.5 -85t0.5 -61q0 -26 0.5 -73t0.5 -68h1h8h2h1q71 0 179 -1h98h162q0 82 -3 198q0 23 -2 117q-4 223 -4 266zM363 412q22 0 38 -16t16 -39t-15.5 -38.5t-38.5 -15.5t-39 16t-16 38q0 23 16 39t39 16zM650 683
q0 -91 4 -295q2 -94 2 -117q3 -140 3 -233q0 -13 -9.5 -22.5t-23.5 -9.5q-5 0 -8 1h-186h-98q-169 1 -209 1h-3q-4 -2 -12 -2q-14 0 -23 9t-9 23q0 26 -0.5 84t-0.5 92q0 16 -0.5 60.5t-0.5 84.5q-2 161 -2 322q0 9 3 15q7 23 31 23q127 0 254 -1h66h187q14 0 24 -10
q11 -9 11 -25z" />
    <glyph glyph-name="o" unicode="o" horiz-adv-x="669" 
d="M99 719q114 0 233 -1h58h177q13 0 23 -10t10 -23t-9.5 -22.5t-23.5 -9.5h-177h-58q-100 1 -204 1q0 -152 -2 -298q-2 -286 -2 -293q23 0 51 -0.5t72 -1t81 -0.5q40 -1 80 -1q59 -1 153 -1q13 0 22.5 -9.5t9.5 -23.5t-9.5 -23t-22.5 -9q-94 0 -154 1q-40 0 -80 1
q-44 0 -94 0.5t-80 1t-59 0.5q-13 0 -20 7q-15 10 -15 27q0 40 0.5 82t1 112t0.5 131q2 162 2 324q0 11 6 18q8 20 30 20zM341 411q23 0 39 -16.5t16 -38.5t-16 -38t-39 -16t-38.5 16t-15.5 38q0 23 16 39t38 16z" />
    <glyph glyph-name="p" unicode="p" horiz-adv-x="713" 
d="M579 34q0 36 -0.5 135t-0.5 189q-1 72 -1 145v154q-61 0 -95 -1q-66 0 -130 -1q-130 -2 -258 -2q-14 0 -23.5 9.5t-9.5 22.5t9.5 23t23.5 10q128 0 257 2q65 1 130 1q47 1 129 1q14 0 23.5 -10t9.5 -23q0 -1 -0.5 -4t-0.5 -4v-178q0 -72 1 -145q0 -90 0.5 -189t0.5 -135
q0 -13 -9.5 -22.5t-23.5 -9.5q-13 0 -22.5 9t-9.5 23zM341 411q23 0 39 -16.5t16 -38.5t-16 -38t-39 -16t-38.5 16t-15.5 38q0 23 16 39t38 16z" />
    <glyph glyph-name="q" unicode="q" horiz-adv-x="797" 
d="M720 684v-24q0 -102 4 -303q3 -246 3 -328q0 -13 -9.5 -22.5t-22.5 -9.5q-14 0 -23.5 9.5t-9.5 22.5q0 81 -3 327q-4 200 -4 301q-137 0 -269 -1q-128 -1 -264 -1q0 -45 2 -187q0 -56 1 -111q2 -162 2 -324q0 -13 -9.5 -22.5t-22.5 -9.5q-14 0 -23.5 9.5t-9.5 22.5
q0 161 -2 323q-1 55 -1 111q-2 166 -2 213q0 7 3 13q2 11 11 19t21 8q147 0 294 1t294 1q11 0 21 -8q19 -9 19 -30zM388 412q22 0 38.5 -16t16.5 -39q0 -22 -16 -38t-39 -16q-22 0 -38 15.5t-16 38.5t16 39t38 16z" />
    <glyph glyph-name="r" unicode="r" horiz-adv-x="730" 
d="M99 717q131 0 264 1h20q113 1 245 1q14 0 23.5 -9.5t9.5 -23.5q0 -13 -9.5 -22.5t-23.5 -9.5q-132 0 -244 -1h-20q-115 -1 -235 -1v-525v-92q0 -13 -9.5 -22.5t-22.5 -9.5q-14 0 -23.5 9.5t-9.5 22.5v92v552q0 5 4 15q7 23 31 23zM371 423q23 0 38.5 -16t15.5 -39
q0 -22 -15.5 -38t-38.5 -16t-39 16t-16 38q0 23 16 39t39 16z" />
    <glyph glyph-name="s" unicode="s" horiz-adv-x="710" 
d="M90 696q86 -186 201 -445q0 -1 1 -2l3 -6q2 -6 3 -7q1 -3 3.5 -8t3.5 -8q12 -26 14 -30q23 -51 42 -87q125 316 216 589q4 13 16 19t25 2q13 -5 19 -16.5t2 -24.5q-93 -282 -240 -650q-6 -16 -22 -19q-25 -11 -40 12q-34 52 -78 148q-12 27 -14 31q-3 6 -6 15l-4 8
q-1 3 -3 7q-115 259 -201 445q-5 13 -0.5 25.5t16.5 17.5q12 6 25 1.5t18 -17.5z" />
    <glyph glyph-name="t" unicode="t" horiz-adv-x="691" 
d="M606 361q-219 -144 -265 -175q-162 -110 -251 -178q-10 -8 -24 -6.5t-21 12.5q-8 10 -6.5 23.5t12.5 21.5q107 82 254 181q63 43 221 146q-296 159 -480 273q-11 7 -14 20t4 25q7 11 20 14t24 -4q191 -119 524 -295q19 -10 17 -31q0 -18 -15 -27z" />
    <glyph glyph-name="u" unicode="u" 
d="M655 661q-216 -133 -273 -167q-8 -5 -21.5 -13t-18.5 -11q-2 -1 -5.5 -3.5t-5.5 -3.5q-7 -5 -22 -13.5t-20 -11.5q-27 -14 -113 -64q-9 -5 -24.5 -14t-20.5 -12q15 -8 36.5 -20.5t36 -20.5t19.5 -11q28 -16 72.5 -41t63.5 -36q128 -71 132 -73q91 -51 153 -83
q11 -7 15 -19.5t-2 -24.5t-19 -16t-25 2q-75 41 -153 84q-91 50 -132 73q-8 4 -56.5 31.5t-80.5 45.5q-95 55 -140 80q-12 7 -15.5 20t3.5 24q4 9 15 14q1 1 2 1q19 12 88 53q9 6 56.5 32.5t56.5 31.5q7 4 20.5 12t20.5 12q5 3 11 7q13 7 39 23l273 167q12 7 25 4t20 -15
q7 -11 3.5 -24t-14.5 -20z" />
    <glyph glyph-name="v" unicode="v" horiz-adv-x="743" 
d="M380 703q3 -6 9 -20t10 -22q15 -32 19 -41q8 -18 20.5 -44.5t17.5 -38.5q54 -121 74 -165q79 -175 141 -328q5 -12 0 -24.5t-18 -17.5t-25.5 0t-16.5 18q-54 132 -140 326q-6 14 -32 71t-43 93q-5 12 -17 38.5t-20 44.5q-1 2 -4 8.5t-5 10.5q-166 -390 -263 -594
q-5 -12 -18 -16.5t-25 1.5q-12 5 -16.5 18t1.5 25q117 250 289 658q5 13 18 17.5t25 -0.5q6 -2 11 -8q5 -3 8 -10z" />
    <glyph glyph-name="w" unicode="w" 
d="M324 245q3 -6 4 -7q1 -3 6 -16q4 -7 14 -30q32 -69 43 -87q125 316 216 589q4 13 16 19t25 2t19 -16t2 -25q-101 -303 -240 -650q-6 -15 -22 -19q-26 -10 -40 12q-34 52 -78 148q-1 2 -6 13t-8 18q-1 2 -3 7t-4 8l-3 8q-2 3 -4 7q-137 308 -200 445q-6 13 -1.5 25.5
t17.5 17.5q7 4 18 0t18 -10l7 -6q86 -186 201 -445q1 -2 3 -8zM384 470q23 0 39 -16t16 -38q0 -23 -16 -39t-39 -16t-38.5 16t-15.5 39q0 22 16 38t38 16z" />
    <glyph glyph-name="x" unicode="x" horiz-adv-x="660" 
d="M576 364q-189 -123 -266 -175q-133 -89 -251 -178q-10 -8 -23.5 -6.5t-21.5 12.5t-6.5 24t12.5 21q107 82 254 181q76 52 222 146q-294 157 -481 273q-11 7 -14 20t4 25q7 11 20 14t25 -4q197 -123 523 -295q19 -9 17 -30q2 -18 -14 -28zM219 430q23 0 38.5 -16t15.5 -38
q0 -23 -16 -39t-38 -16q-23 0 -39 16t-16 39t16 38.5t39 15.5z" />
    <glyph glyph-name="y" unicode="y" horiz-adv-x="736" 
d="M413 424q23 0 38.5 -16t15.5 -38q0 -23 -15.5 -39t-38.5 -16t-39 16t-16 39q0 22 16 38t39 16zM631 661q-178 -114 -328 -195q-34 -18 -79 -46q-4 -2 -42 -25t-48 -29q-11 -6 -31 -18q343 -182 545 -283q12 -6 16.5 -18.5t-1.5 -24.5t-19 -16.5t-25 1.5
q-234 117 -601 313q-12 6 -16 19t3 25q8 14 24 17q47 26 72 41q82 50 89 54q32 19 82 47q141 76 324 192q12 8 25 5t20 -14q7 -12 4 -25t-14 -20z" />
    <glyph glyph-name="z" unicode="z" horiz-adv-x="725" 
d="M363 699q2 -5 19 -41q14 -32 18 -41q8 -16 38 -82q17 -36 43 -93t32 -71q83 -186 140 -325q5 -12 0 -24.5t-17 -17.5q-13 -5 -25.5 0t-17.5 18q-55 135 -140 323q-54 119 -74 163q-22 48 -38 82q0 1 -1.5 4l-3.5 7t-3 7q-159 -374 -261 -590q-6 -12 -18.5 -16.5
t-24.5 1.5q-12 5 -17 18t1 25q106 225 288 654q5 13 17.5 18t25.5 0q8 -3 12 -9q0 -1 3 -4.5t4 -5.5zM327 370q22 0 38 -16t16 -39t-15.5 -38.5t-38.5 -15.5t-39 16t-16 38q0 23 16 39t39 16z" />
    <glyph glyph-name="braceleft" unicode="{" horiz-adv-x="499" 
d="M291 655q-28 4 -42 -1q-11 -4 -20 -19q-17 -29 -26 -106q-1 -3 -3 -26q-6 -48 -9 -64q-6 -36 -18 -60q-15 -29 -41 -55q-26 -22 -40 -32q41 -23 63 -67q14 -29 23 -72q3 -16 11 -72v-2q8 -62 15 -85q9 -35 26 -52q24 -24 90 -37q13 -4 25 -5l25 -5q6 -1 14.5 -2.5
t10.5 -1.5q17 -4 27.5 -19t6.5 -32q-4 -18 -19 -28t-32 -6q-10 2 -23 4q-19 3 -25 4q-27 5 -28 5q-42 10 -69 20q-41 18 -65 42q-32 32 -48 90q-9 36 -17 97v2q-8 56 -10 66q-8 32 -16 50q-19 36 -65 39q-18 1 -30 14t-11 31q0 8 3 15q-2 19 12 33q18 18 50 41q27 20 36 29
q13 12 23 30q5 11 10 37q4 19 8 57q2 23 3 27q7 51 12 72q11 45 27 70q49 79 153 59q17 -3 27.5 -18t6.5 -33t-18.5 -28t-32.5 -6z" />
    <glyph glyph-name="bar" unicode="|" horiz-adv-x="226" 
d="M153 698q3 -86 2 -189q0 -39 -1 -75q-1 -160 1 -217q1 -25 0 -60q0 -3 -0.5 -10t-0.5 -12q-2 -30 -2 -56q0 -24 3 -38q4 -18 -5 -33t-26 -20q-18 -4 -33 5t-20 27q-6 25 -6 59q0 29 2 60q0 6 0.5 13t0.5 9q1 32 0 52q-2 59 -1 222q1 36 1 75q1 100 -2 184q-1 18 11 31
t30 14t31.5 -11t14.5 -30z" />
    <glyph glyph-name="braceright" unicode="}" horiz-adv-x="440" 
d="M338 228q-55 -13 -81 -60q-21 -38 -34 -120q-1 -5 -5 -35q-9 -54 -13 -74q-8 -39 -24 -70q-42 -80 -135 -80q-18 0 -31 12.5t-13 30.5t13 31t31 13q40 0 58 33q8 17 16 49q6 25 11 67q2 11 3.5 21.5t2.5 15.5q5 38 15 74q10 38 29 74q26 48 68 74l-3 2q-9 5 -20.5 12.5
t-13.5 8.5q-20 15 -32 32q-19 31 -31 71q-7 23 -15 70q0 3 -1 7.5t-1 9.5q-2 12 -11 60q-8 30 -17 45q-21 36 -75 44q-17 2 -28 16.5t-9 32.5t16.5 28.5t32.5 8.5q96 -13 139 -87q16 -29 25 -68q6 -23 13 -67q0 -4 1 -8.5t1 -7.5q13 -78 33 -108l2 -2q1 -1 4 -3t4 -3
q8 -7 27 -17q15 -8 19 -11q2 -1 9 -5t10 -6q10 -7 18 -15q13 -13 18 -27q1 -2 1 -5q5 -9 5 -11q4 -18 -5.5 -33t-26.5 -20z" />
    <glyph glyph-name="asciitilde" unicode="~" horiz-adv-x="660" 
d="M7 182q17 126 124 142q38 6 89 -3q21 -3 87 -20q1 0 2.5 -0.5t2.5 -1.5q36 -9 76 -17q37 -6 60 -3q21 1 34 13q15 12 22 42q5 17 20.5 26.5t32.5 5.5q17 -5 26.5 -20.5t5.5 -32.5q-27 -109 -131 -121q-34 -4 -84 4q-29 5 -83 19q-2 1 -6 1q-53 14 -80 19q-43 7 -61 3
q-20 -3 -31 -14q-15 -16 -19 -53q-2 -18 -16.5 -29t-32.5 -9t-29 16.5t-9 32.5z" />
    <glyph glyph-name="quoteleft" unicode="&#x2018;" horiz-adv-x="251" 
d="M171 646l-1 -1q0 -1 -1 -2.5t-2 -2.5q-1 -3 -4 -9t-4 -9q-10 -24 -14 -46q-2 -14 -2 -19v-2q13 -4 21.5 -15.5t8.5 -25.5q0 -18 -12.5 -31t-30.5 -13q-55 0 -70 53q-9 30 0 70q15 77 45 110q12 14 29.5 15t31.5 -11q13 -12 14.5 -30t-9.5 -31z" />
    <glyph glyph-name="quoteright" unicode="&#x2019;" horiz-adv-x="261" 
d="M163 704q25 -53 28 -116q3 -79 -36 -127q-12 -14 -29.5 -15.5t-31.5 10.5q-14 11 -15.5 29t9.5 32q19 22 16 67q-2 44 -20 84q-7 17 -1 33.5t22 24.5q17 7 33.5 1t24.5 -23z" />
    <glyph glyph-name="quotedblleft" unicode="&#x201c;" horiz-adv-x="396" 
d="M155 654q-24 -16 -35.5 -51t-1.5 -62q7 -16 0 -33t-24 -24q-17 -6 -33.5 1t-23.5 24q-22 56 -1 120.5t71 97.5q15 10 32.5 6.5t27.5 -18.5t6.5 -33t-18.5 -28zM301 656q-22 -10 -28 -37q-6 -28 1 -73q2 -17 -8.5 -31.5t-28.5 -17.5q-18 -2 -32.5 8.5t-16.5 28.5
q-9 64 0 105q16 68 77 96q17 7 33.5 1t24.5 -22q7 -16 0.5 -33.5t-22.5 -24.5z" />
    <glyph glyph-name="quotedblright" unicode="&#x201d;" horiz-adv-x="373" 
d="M137 704q19 -50 12.5 -105t-38.5 -96q-11 -14 -28.5 -16.5t-32.5 7.5q-14 11 -16.5 29t8.5 32q39 52 13 118q-6 17 1.5 33.5t23.5 22.5q17 7 33.5 -0.5t23.5 -24.5zM288 699q15 -42 15 -92q0 -67 -36 -104q-13 -13 -31 -13t-31 13t-13 31t13 31q11 10 11.5 42.5
t-10.5 62.5q-6 17 2 33.5t25 21.5q17 6 33 -1.5t22 -24.5z" />
    <glyph glyph-name="uni3000" unicode="&#x3000;" horiz-adv-x="1000" 
 />
  </font>
</defs>
</svg>
